<?xml version="1.0" encoding="UTF-8" standalone="no"?><svg xmlns="http://www.w3.org/2000/svg" xmlns:xlink="http://www.w3.org/1999/xlink" contentScriptType="application/ecmascript" contentStyleType="text/css" height="640.8px" preserveAspectRatio="none" style="width:678px;height:640px;background:#FFFFFF;" version="1.1" viewBox="0 0 678 640" width="678.4px" zoomAndPan="magnify"><defs/><g><!--MD5=[67a6735b2a5707e03290b64fb931c9ce]
cluster components--><rect fill="#FFFFFF" height="391.6" style="stroke:#000000;stroke-width:1.2000000000000002;" width="118.4" x="24" y="244.8"/><text fill="#000000" font-family="sans-serif" font-size="11.2" font-weight="bold" lengthAdjust="spacing" textLength="70.4" x="48" y="257.2281">components</text><!--MD5=[71d025891867de53c6fbdf206ea2c55d]
cluster features--><rect fill="#FFFFFF" height="82.4" style="stroke:#000000;stroke-width:1.2000000000000002;" width="103.2" x="302.4" y="130.4"/><text fill="#000000" font-family="sans-serif" font-size="11.2" font-weight="bold" lengthAdjust="spacing" textLength="47.2" x="330.4" y="142.8281">features</text><!--MD5=[01435ace8273dc3cae88e7f376e4d373]
cluster core--><rect fill="#FFFFFF" height="82.4" style="stroke:#000000;stroke-width:1.2000000000000002;" width="120.8" x="484.8" y="244.8"/><text fill="#000000" font-family="sans-serif" font-size="11.2" font-weight="bold" lengthAdjust="spacing" textLength="24" x="533.2" y="257.2281">core</text><!--MD5=[85f4d1a33338ddce045f9b827d37a273]
entity pages--><rect fill="#FEFECE" height="29.1906" style="stroke:#000000;stroke-width:1.2000000000000002;" width="48.8" x="62" y="279.2"/><text fill="#000000" font-family="sans-serif" font-size="11.2" lengthAdjust="spacing" textLength="32.8" x="70" y="298.0281">pages</text><!--MD5=[b6cc7475285a593b5cc9fc221385c7bb]
entity organisms--><rect fill="#FEFECE" height="29.1906" style="stroke:#000000;stroke-width:1.2000000000000002;" width="73.6" x="49.6" y="434.8"/><text fill="#000000" font-family="sans-serif" font-size="11.2" lengthAdjust="spacing" textLength="57.6" x="57.6" y="453.6281">organisms</text><!--MD5=[449dffa8e95e04b1e6c5f80ed83d8145]
entity molecules--><rect fill="#FEFECE" height="29.1906" style="stroke:#000000;stroke-width:1.2000000000000002;" width="71.2" x="50.8" y="511.6"/><text fill="#000000" font-family="sans-serif" font-size="11.2" lengthAdjust="spacing" textLength="55.2" x="58.8" y="530.4281">molecules</text><!--MD5=[ba206de70ec52031b239008c66b74954]
entity atoms--><rect fill="#FEFECE" height="29.1906" style="stroke:#000000;stroke-width:1.2000000000000002;" width="49.6" x="61.6" y="588.4"/><text fill="#000000" font-family="sans-serif" font-size="11.2" lengthAdjust="spacing" textLength="33.6" x="69.6" y="607.2281">atoms</text><!--MD5=[4973cff6d5222f460e58305e2909ce55]
entity templates--><rect fill="#FEFECE" height="29.1906" style="stroke:#000000;stroke-width:1.2000000000000002;" width="69.6" x="51.6" y="358"/><text fill="#000000" font-family="sans-serif" font-size="11.2" lengthAdjust="spacing" textLength="53.6" x="59.6" y="376.8281">templates</text><!--MD5=[50cabd9532d2468aad9c3272acbd5d5b]
entity slice...--><rect fill="#FEFECE" height="29.1906" style="stroke:#000000;stroke-width:1.2000000000000002;" width="49.6" x="336.8" y="164.8"/><text fill="#000000" font-family="sans-serif" font-size="11.2" lengthAdjust="spacing" textLength="33.6" x="344.8" y="183.6281">slice...</text><!--MD5=[ecd40efa396aed24c560a3b32142d2b5]
entity gateways--><rect fill="#FEFECE" height="29.1906" style="stroke:#000000;stroke-width:1.2000000000000002;" width="66.4" x="519.6" y="279.2"/><text fill="#000000" font-family="sans-serif" font-size="11.2" lengthAdjust="spacing" textLength="50.4" x="527.6" y="298.0281">gateways</text><!--MD5=[caf660ac2a54b55a5c31b5515889e628]
entity config--><rect fill="#FEFECE" height="29.1906" style="stroke:#000000;stroke-width:1.2000000000000002;" width="50.4" x="466" y="358"/><text fill="#000000" font-family="sans-serif" font-size="11.2" lengthAdjust="spacing" textLength="34.4" x="474" y="376.8281">config</text><path d="M624.8,283.6 L624.8,303.8484 L672.8,303.8484 L672.8,291.6 L664.8,283.6 L624.8,283.6 " fill="#FBFB77" style="stroke:#A80036;stroke-width:0.8000000000000002;"/><path d="M664.8,283.6 L664.8,291.6 L672.8,291.6 L664.8,283.6 " fill="#FBFB77" style="stroke:#A80036;stroke-width:0.8000000000000002;"/><text fill="#000000" font-family="sans-serif" font-size="10.4" lengthAdjust="spacing" textLength="31.2" x="629.6" y="297.6547">設定値</text><!--MD5=[b30b38ce4569dacde3f8306bd4ec7604]
entity index--><rect fill="#FEFECE" height="29.1906" style="stroke:#000000;stroke-width:1.2000000000000002;" width="47.2" x="249.2" y="5.6"/><text fill="#000000" font-family="sans-serif" font-size="11.2" lengthAdjust="spacing" textLength="31.2" x="257.2" y="24.4281">index</text><!--MD5=[6e8f311b0aa23032184ffba0ef926f91]
entity App--><rect fill="#FEFECE" height="29.1906" style="stroke:#000000;stroke-width:1.2000000000000002;" width="38.4" x="326.4" y="5.6"/><text fill="#000000" font-family="sans-serif" font-size="11.2" lengthAdjust="spacing" textLength="22.4" x="334.4" y="24.4281">App</text><!--MD5=[58b0dd66ef19f0813ca5dbc778434f73]
entity routers--><rect fill="#FEFECE" height="29.1906" style="stroke:#000000;stroke-width:1.2000000000000002;" width="56" x="320" y="82.4"/><text fill="#000000" font-family="sans-serif" font-size="11.2" lengthAdjust="spacing" textLength="40" x="328" y="101.2281">routers</text><path d="M4.8,169.2 L4.8,189.4484 L56,189.4484 L56,177.2 L48,169.2 L4.8,169.2 " fill="#FBFB77" style="stroke:#A80036;stroke-width:0.8000000000000002;"/><path d="M48,169.2 L48,177.2 L56,177.2 L48,169.2 " fill="#FBFB77" style="stroke:#A80036;stroke-width:0.8000000000000002;"/><text fill="#000000" font-family="sans-serif" font-size="10.4" lengthAdjust="spacing" textLength="34.4" x="9.6" y="183.2547">UI 部品</text><path d="M450,169.2 L450,189.4484 L532.4,189.4484 L532.4,177.2 L524.4,169.2 L450,169.2 " fill="#FBFB77" style="stroke:#A80036;stroke-width:0.8000000000000002;"/><path d="M524.4,169.2 L524.4,177.2 L532.4,177.2 L524.4,169.2 " fill="#FBFB77" style="stroke:#A80036;stroke-width:0.8000000000000002;"/><text fill="#000000" font-family="sans-serif" font-size="10.4" lengthAdjust="spacing" textLength="65.6" x="454.8" y="183.2547">UI 以外の部品</text><!--MD5=[0686720d71d32ea68f81164171d509ce]
entity store--><rect fill="#FEFECE" height="29.1906" style="stroke:#000000;stroke-width:1.2000000000000002;" width="44" x="247.6" y="82.4"/><text fill="#000000" font-family="sans-serif" font-size="11.2" lengthAdjust="spacing" textLength="28" x="255.6" y="101.2281">store</text><path d="M161.6,277.2 L161.6,309.6969 L406.4,309.6969 L406.4,285.2 L398.4,277.2 L161.6,277.2 " fill="#FBFB77" style="stroke:#A80036;stroke-width:0.8000000000000002;"/><path d="M398.4,277.2 L398.4,285.2 L406.4,285.2 L398.4,277.2 " fill="#FBFB77" style="stroke:#A80036;stroke-width:0.8000000000000002;"/><text fill="#000000" font-family="sans-serif" font-size="10.4" lengthAdjust="spacing" textLength="135.2" x="166.4" y="291.2547">ビジネスロジック関連の部品</text><text fill="#000000" font-family="sans-serif" font-size="10.4" lengthAdjust="spacing" textLength="228" x="166.4" y="303.5031">Action、Reducer、React コンポーネントも含む</text><!--MD5=[4cbbde51f467105b3a675851f6fb90b5]
link GMN3 to config--><path d="M640.992,303.808 C631.944,314.112 616.112,330.456 599.2,340 C573,354.792 539.24,363.224 516.496,367.592 " fill="none" id="GMN3-config" style="stroke:#A80036;stroke-width:0.8000000000000002;stroke-dasharray:7.0,7.0;"/><!--MD5=[8a811b164b30c7ae158a8a83ae2a3f1c]
link GMN10 to components--><path d="M30.4,189.232 C30.4,195.862 30.4,205.501 30.4,216.2665 C30.4,221.6493 30.4,227.3136 30.4,233.0243 C30.4,235.8797 30.4,238.7466 30.4,241.5957 C30.4,242.3079 30.4,243.0191 30.4,243.7287 C30.4,244.0835 30.4,244.4379 30.4,244.7918 " fill="none" id="GMN10-components" style="stroke:#A80036;stroke-width:0.8000000000000002;stroke-dasharray:7.0,7.0;"/><!--MD5=[087105c08d085352566e8ba7bfe60bdf]
link GMN14 to core--><path d="M491.2,189.232 C491.2,195.862 491.2,205.501 491.2,216.2665 C491.2,221.6493 491.2,227.3136 491.2,233.0243 C491.2,235.8797 491.2,238.7466 491.2,241.5957 C491.2,242.3079 491.2,243.0191 491.2,243.7287 C491.2,244.0835 491.2,244.4379 491.2,244.7918 " fill="none" id="GMN14-core" style="stroke:#A80036;stroke-width:0.8000000000000002;stroke-dasharray:7.0,7.0;"/><!--MD5=[2ddadf6ef1bd1a5339a9931afc75662a]
link features to GMN25--><path d="M302.318,209.4754 C302.2857,209.6225 302.2532,209.77 302.2207,209.9179 C302.1557,210.2135 302.0905,210.5104 302.0249,210.8085 C301.5006,213.1933 300.9593,215.6555 300.406,218.172 C295.98,238.304 290.792,261.908 287.456,277.096 " fill="none" id="features-GMN25" style="stroke:#A80036;stroke-width:0.8000000000000002;stroke-dasharray:7.0,7.0;"/><!--MD5=[c0b237845a10662ab153fdd861487416]
link index to App--><path d="M296.4,20 C304.992,20 313.576,20 322.168,20 " fill="none" id="index-to-App" style="stroke:#A80036;stroke-width:0.8000000000000002;"/><polygon fill="#A80036" points="326.384,20,319.184,16.8,322.384,20,319.184,23.2,326.384,20" style="stroke:#A80036;stroke-width:0.8000000000000002;"/><!--MD5=[2980d0585f74092fad27cedda57666b0]
link App to routers--><path d="M346.04,34.592 C346.432,46.784 347,64.648 347.424,77.968 " fill="none" id="App-to-routers" style="stroke:#A80036;stroke-width:0.8000000000000002;"/><polygon fill="#A80036" points="347.56,82.296,350.5114,74.9906,347.4229,78.2983,344.1152,75.2099,347.56,82.296" style="stroke:#A80036;stroke-width:0.8000000000000002;"/><!--MD5=[6dd8f32d979b04470efee82930a91fb3]
link routers to features--><path d="M328.952,111.384 C327.096,113.312 325.384,115.392 324,117.6 C322.207,120.457 320.6254,123.5136 319.2302,126.6796 C318.8814,127.4711 318.5443,128.2695 318.2184,129.0733 C318.0555,129.4751 317.8954,129.8784 317.738,130.2828 " fill="none" id="routers-to-features" style="stroke:#A80036;stroke-width:0.8000000000000002;"/><polygon fill="#A80036" points="317.738,130.2828,323.331,124.7331,319.1884,126.555,317.3665,122.4125,317.738,130.2828" style="stroke:#A80036;stroke-width:0.8000000000000002;"/><!--MD5=[beb0bcf5720fcd9f7ba214a16ab0694e]
link pages to templates--><path d="M86.4,308.2 C86.4,320.936 86.4,339.912 86.4,353.792 " fill="none" id="pages-to-templates" style="stroke:#A80036;stroke-width:0.8000000000000002;"/><polygon fill="#A80036" points="86.4,357.92,89.6,350.72,86.4,353.92,83.2,350.72,86.4,357.92" style="stroke:#A80036;stroke-width:0.8000000000000002;"/><!--MD5=[151e0cde9710f9d183fab5a569000b55]
link organisms to molecules--><path d="M86.4,463.792 C86.4,475.984 86.4,493.848 86.4,507.168 " fill="none" id="organisms-to-molecules" style="stroke:#A80036;stroke-width:0.8000000000000002;"/><polygon fill="#A80036" points="86.4,511.496,89.6,504.296,86.4,507.496,83.2,504.296,86.4,511.496" style="stroke:#A80036;stroke-width:0.8000000000000002;"/><!--MD5=[50cb16575eff6aac3159d2d9bebd4a82]
link molecules to atoms--><path d="M86.4,540.592 C86.4,552.784 86.4,570.648 86.4,583.968 " fill="none" id="molecules-to-atoms" style="stroke:#A80036;stroke-width:0.8000000000000002;"/><polygon fill="#A80036" points="86.4,588.296,89.6,581.096,86.4,584.296,83.2,581.096,86.4,588.296" style="stroke:#A80036;stroke-width:0.8000000000000002;"/><!--MD5=[00639ab4ea360f4acc44c873533fd978]
link templates to organisms--><path d="M86.4,386.992 C86.4,399.184 86.4,417.048 86.4,430.368 " fill="none" id="templates-to-organisms" style="stroke:#A80036;stroke-width:0.8000000000000002;"/><polygon fill="#A80036" points="86.4,434.696,89.6,427.496,86.4,430.696,83.2,427.496,86.4,434.696" style="stroke:#A80036;stroke-width:0.8000000000000002;"/><!--MD5=[a84fe4ad0ea53bad7c3d64c4dd7595c0]
link store to features--><path d="M276.248,111.304 C281.668,122.472 289.474,138.562 296.083,152.186 C297.7353,155.592 299.3127,158.8439 300.7593,161.8262 C301.121,162.5718 301.4745,163.3005 301.8189,164.0106 C301.9911,164.3656 302.1611,164.716 302.3287,165.0615 " fill="none" id="store-to-features" style="stroke:#A80036;stroke-width:0.8000000000000002;"/><polygon fill="#A80036" points="302.3287,165.0615,302.0655,157.1868,300.5829,161.4625,296.3072,159.9799,302.3287,165.0615" style="stroke:#A80036;stroke-width:0.8000000000000002;"/><!--MD5=[2592838109e295cc47a5ec86959b46d2]
link features to components--><path d="M302.3399,181.2357 C302.094,181.2828 301.8415,181.3312 301.5825,181.3808 C297.4386,182.1747 291.6232,183.2886 284.4324,184.6658 C270.0508,187.42 250.1675,191.227 227.151,195.632 C181.118,204.442 122.552,215.644 70.4,225.6 C55.464,228.448 47.096,220.816 36.8,232 C34.572,234.422 32.7898,237.149 31.378,240.0716 C30.6721,241.5329 30.0588,243.0431 29.5287,244.5886 " fill="none" id="features-to-components" style="stroke:#A80036;stroke-width:0.8000000000000002;"/><polygon fill="#A80036" points="29.5287,244.5886,34.8916,238.8162,30.8265,240.8049,28.8378,236.7398,29.5287,244.5886" style="stroke:#A80036;stroke-width:0.8000000000000002;"/><!--MD5=[9b13798bf4d1c968944078f1a02f5e44]
link features to core--><path d="M314.337,212.8393 C314.3703,212.9133 314.4038,212.9873 314.4375,213.0611 C314.5049,213.2087 314.573,213.356 314.642,213.5029 C316.849,218.2025 319.87,222.484 324,225.6 C336.928,235.352 456.576,222.376 469.6,232 C475.184,236.13 479.33,241.8255 482.407,248.086 C483.1763,249.6511 483.8787,251.2516 484.5201,252.8717 C484.6003,253.0742 484.6795,253.277 484.7577,253.4801 " fill="none" id="features-to-core" style="stroke:#A80036;stroke-width:0.8000000000000002;"/><polygon fill="#A80036" points="484.7577,253.4801,485.1543,245.611,483.3192,249.7477,479.1825,247.9126,484.7577,253.4801" style="stroke:#A80036;stroke-width:0.8000000000000002;"/><!--MD5=[1af47c54b1f94d8b183ca6cfd758306a]
link index to store--><path d="M272.216,34.592 C271.696,46.784 270.936,64.648 270.368,77.968 " fill="none" id="index-to-store" style="stroke:#A80036;stroke-width:0.8000000000000002;"/><polygon fill="#A80036" points="270.184,82.296,273.6894,75.2396,270.3553,78.2997,267.2952,74.9656,270.184,82.296" style="stroke:#A80036;stroke-width:0.8000000000000002;"/><!--MD5=[fd6b3177ddd1b6cca46dd6385bbedc47]
link features to config--><path d="M314.4966,212.9815 C314.5638,213.1294 314.6318,213.277 314.7005,213.4241 C316.9005,218.133 319.904,222.438 324,225.6 C341.064,238.776 402.824,220.096 420.8,232 C431.96,239.392 467.736,318.32 483.56,354.12 " fill="none" id="features-to-config" style="stroke:#A80036;stroke-width:0.8000000000000002;"/><polygon fill="#A80036" points="485.2,357.856,485.2252,349.977,483.5871,354.1956,479.3685,352.5575,485.2,357.856" style="stroke:#A80036;stroke-width:0.8000000000000002;"/><!--MD5=[d618bbc0bde4741a1bb2367c99af137e]
link core to config--><path d="M491.2,327.2765 C491.2,327.4767 491.2,327.6772 491.2,327.8778 C491.2,328.6802 491.2,329.4857 491.2,330.2928 C491.2,331.9069 491.2,333.5273 491.2,335.1428 C491.2,341.6045 491.2,347.986 491.2,353.56 " fill="none" id="core-to-config" style="stroke:#A80036;stroke-width:0.8000000000000002;"/><polygon fill="#A80036" points="491.2,357.832,494.4,350.632,491.2,353.832,488,350.632,491.2,357.832" style="stroke:#A80036;stroke-width:0.8000000000000002;"/><!--MD5=[817ddd8afa2c45480cc1924cc7027ee9]
@startuml dependencies
' title  React サンプルプロジェクト 依存関係図
skinparam shadowing false
scale 0.8
' scale 400 width

skinparam packageStyle Rectangle

rectangle config

note top of config
  設定値
end note

rectangle index
rectangle App
rectangle routers

note top of components
  UI 部品
end note

note top of core
  UI 以外の部品
end note

package components {
  rectangle pages
  rectangle organisms
  rectangle molecules
  rectangle atoms
  rectangle templates
}

rectangle store

package features {
  rectangle slice...
}

note bottom of features
  ビジネスロジック関連の部品
  Action、Reducer、React コンポーネントも含む
end note

package core {
  rectangle gateways
}

index -> App
App - -> routers
routers - -> features
pages - -> templates
organisms - -> molecules
molecules - -> atoms
templates - -> organisms

store - -> features

features - -> components
features - -> core
index - -> store

features - -> config
core - -> config

@enduml

@startuml dependencies
skinparam shadowing false
scale 0.8

skinparam packageStyle Rectangle

rectangle config

note top of config
  設定値
end note

rectangle index
rectangle App
rectangle routers

note top of components
  UI 部品
end note

note top of core
  UI 以外の部品
end note

package components {
  rectangle pages
  rectangle organisms
  rectangle molecules
  rectangle atoms
  rectangle templates
}

rectangle store

package features {
  rectangle slice...
}

note bottom of features
  ビジネスロジック関連の部品
  Action、Reducer、React コンポーネントも含む
end note

package core {
  rectangle gateways
}

index -> App
App - -> routers
routers - -> features
pages - -> templates
organisms - -> molecules
molecules - -> atoms
templates - -> organisms

store - -> features

features - -> components
features - -> core
index - -> store

features - -> config
core - -> config

@enduml

PlantUML version 1.2022.0(Wed Jan 12 01:16:42 JST 2022)
(GPL source distribution)
Java Runtime: OpenJDK Runtime Environment
JVM: OpenJDK 64-Bit Server VM
Default Encoding: UTF-8
Language: ja
Country: JP
--></g></svg>