<?xml version="1.0" encoding="UTF-8" standalone="no"?><svg xmlns="http://www.w3.org/2000/svg" xmlns:xlink="http://www.w3.org/1999/xlink" contentScriptType="application/ecmascript" contentStyleType="text/css" height="364.9452px" preserveAspectRatio="none" style="width:401px;height:364px;background:#FFFFFF;" version="1.1" viewBox="0 0 401 364" width="401.8779px" zoomAndPan="magnify"><defs><filter height="300%" id="ffqfbtmhnitl4" width="300%" x="-1" y="-1"><feGaussianBlur result="blurOut" stdDeviation="1.2519561815336464"/><feColorMatrix in="blurOut" result="blurOut2" type="matrix" values="0 0 0 0 0 0 0 0 0 0 0 0 0 0 0 0 0 0 .4 0"/><feOffset dx="2.503912363067293" dy="2.503912363067293" in="blurOut2" result="blurOut3"/><feBlend in="SourceGraphic" in2="blurOut3" mode="normal"/></filter></defs><g><text fill="#000000" font-family="sans-serif" font-size="11.2676" lengthAdjust="spacing" textLength="205.9468" x="93.2707" y="10.8935">React サンプルプロジェクト 依存関係図</text><!--MD5=[67a6735b2a5707e03290b64fb931c9ce]
cluster components--><rect fill="#FFFFFF" filter="url(#ffqfbtmhnitl4)" height="64.4757" style="stroke:#000000;stroke-width:0.9389671361502347;" width="375.5869" x="5.6338" y="293.0825"/><text fill="#000000" font-family="sans-serif" font-size="8.7637" font-weight="bold" lengthAdjust="spacing" textLength="55.0861" x="165.8842" y="302.8071">components</text><!--MD5=[01435ace8273dc3cae88e7f376e4d373]
cluster core--><rect fill="#FFFFFF" filter="url(#ffqfbtmhnitl4)" height="64.4757" style="stroke:#000000;stroke-width:0.9389671361502347;" width="281.0642" x="90.7668" y="175.3986"/><text fill="#000000" font-family="sans-serif" font-size="8.7637" font-weight="bold" lengthAdjust="spacing" textLength="18.7793" x="221.9092" y="185.1232">core</text><!--MD5=[85f4d1a33338ddce045f9b827d37a273]
entity pages--><rect fill="#FEFECE" filter="url(#ffqfbtmhnitl4)" height="22.8409" style="stroke:#000000;stroke-width:0.9389671361502347;" width="38.1847" x="20.9703" y="319.9995"/><text fill="#000000" font-family="sans-serif" font-size="8.7637" lengthAdjust="spacing" textLength="25.6651" x="27.23" y="334.732">pages</text><!--MD5=[b6cc7475285a593b5cc9fc221385c7bb]
entity organisms--><rect fill="#FEFECE" filter="url(#ffqfbtmhnitl4)" height="22.8409" style="stroke:#000000;stroke-width:0.9389671361502347;" width="57.59" x="157.7465" y="319.9995"/><text fill="#000000" font-family="sans-serif" font-size="8.7637" lengthAdjust="spacing" textLength="45.0704" x="164.0063" y="334.732">organisms</text><!--MD5=[449dffa8e95e04b1e6c5f80ed83d8145]
entity molecules--><rect fill="#FEFECE" filter="url(#ffqfbtmhnitl4)" height="22.8409" style="stroke:#000000;stroke-width:0.9389671361502347;" width="55.7121" x="237.5587" y="319.9995"/><text fill="#000000" font-family="sans-serif" font-size="8.7637" lengthAdjust="spacing" textLength="43.1925" x="243.8185" y="334.732">molecules</text><!--MD5=[ba206de70ec52031b239008c66b74954]
entity atoms--><rect fill="#FEFECE" filter="url(#ffqfbtmhnitl4)" height="22.8409" style="stroke:#000000;stroke-width:0.9389671361502347;" width="38.8106" x="315.493" y="319.9995"/><text fill="#000000" font-family="sans-serif" font-size="8.7637" lengthAdjust="spacing" textLength="26.2911" x="321.7527" y="334.732">atoms</text><!--MD5=[4973cff6d5222f460e58305e2909ce55]
entity templates--><rect fill="#FEFECE" filter="url(#ffqfbtmhnitl4)" height="22.8409" style="stroke:#000000;stroke-width:0.9389671361502347;" width="54.4601" x="81.0642" y="319.9995"/><text fill="#000000" font-family="sans-serif" font-size="8.7637" lengthAdjust="spacing" textLength="41.9405" x="87.3239" y="334.732">templates</text><!--MD5=[ecd40efa396aed24c560a3b32142d2b5]
entity gateways--><rect fill="#FEFECE" filter="url(#ffqfbtmhnitl4)" height="22.8409" style="stroke:#000000;stroke-width:0.9389671361502347;" width="51.9562" x="304.5383" y="202.3156"/><text fill="#000000" font-family="sans-serif" font-size="8.7637" lengthAdjust="spacing" textLength="39.4366" x="310.7981" y="217.0481">gateways</text><!--MD5=[ac2385813f1b79deff9596fc3d11e257]
entity slices--><rect fill="#FEFECE" filter="url(#ffqfbtmhnitl4)" height="22.8409" style="stroke:#000000;stroke-width:0.9389671361502347;" width="35.6808" x="174.3349" y="202.3156"/><text fill="#000000" font-family="sans-serif" font-size="8.7637" lengthAdjust="spacing" textLength="23.1612" x="180.5947" y="217.0481">slices</text><!--MD5=[0686720d71d32ea68f81164171d509ce]
entity store--><rect fill="#FEFECE" filter="url(#ffqfbtmhnitl4)" height="22.8409" style="stroke:#000000;stroke-width:0.9389671361502347;" width="34.4288" x="117.9969" y="202.3156"/><text fill="#000000" font-family="sans-serif" font-size="8.7637" lengthAdjust="spacing" textLength="21.9092" x="124.2567" y="217.0481">store</text><!--MD5=[fd2f3c0334b9635c2a48f5a2d6be6392]
entity usecases--><rect fill="#FEFECE" filter="url(#ffqfbtmhnitl4)" height="22.8409" style="stroke:#000000;stroke-width:0.9389671361502347;" width="50.7042" x="231.9249" y="202.3156"/><text fill="#000000" font-family="sans-serif" font-size="8.7637" lengthAdjust="spacing" textLength="38.1847" x="238.1847" y="217.0481">usecases</text><!--MD5=[b30b38ce4569dacde3f8306bd4ec7604]
entity index--><rect fill="#FEFECE" filter="url(#ffqfbtmhnitl4)" height="22.8409" style="stroke:#000000;stroke-width:0.9389671361502347;" width="36.9327" x="7.8247" y="17.6521"/><text fill="#000000" font-family="sans-serif" font-size="8.7637" lengthAdjust="spacing" textLength="24.4131" x="14.0845" y="32.3846">index</text><!--MD5=[6e8f311b0aa23032184ffba0ef926f91]
entity App--><rect fill="#FEFECE" filter="url(#ffqfbtmhnitl4)" height="22.8409" style="stroke:#000000;stroke-width:0.9389671361502347;" width="30.0469" x="11.2676" y="77.746"/><text fill="#000000" font-family="sans-serif" font-size="8.7637" lengthAdjust="spacing" textLength="17.5274" x="17.5274" y="92.4785">App</text><!--MD5=[58b0dd66ef19f0813ca5dbc778434f73]
entity routers--><rect fill="#FEFECE" filter="url(#ffqfbtmhnitl4)" height="22.8409" style="stroke:#000000;stroke-width:0.9389671361502347;" width="43.8185" x="4.3818" y="137.8399"/><text fill="#000000" font-family="sans-serif" font-size="8.7637" lengthAdjust="spacing" textLength="31.2989" x="10.6416" y="152.5724">routers</text><!--MD5=[0bb9c21cf77994669bd82826522e1a46]
entity adapters--><rect fill="#FEFECE" filter="url(#ffqfbtmhnitl4)" height="22.8409" style="stroke:#000000;stroke-width:0.9389671361502347;" width="50.0782" x="15.0235" y="202.3156"/><text fill="#000000" font-family="sans-serif" font-size="8.7637" lengthAdjust="spacing" textLength="37.5587" x="21.2833" y="217.0481">adapters</text><path d="M356.1815,262.4095 L356.1815,278.2534 L396.2441,278.2534 L396.2441,268.6693 L389.9844,262.4095 L356.1815,262.4095 " fill="#FBFB77" filter="url(#ffqfbtmhnitl4)" style="stroke:#A80036;stroke-width:0.6259780907668232;"/><path d="M389.9844,262.4095 L389.9844,268.6693 L396.2441,268.6693 L389.9844,262.4095 " fill="#FBFB77" style="stroke:#A80036;stroke-width:0.6259780907668232;"/><text fill="#000000" font-family="sans-serif" font-size="8.1377" lengthAdjust="spacing" textLength="26.9171" x="359.9374" y="273.4069">UI 部品</text><path d="M70.4225,141.2828 L70.4225,157.1266 L148.6698,157.1266 L148.6698,147.5425 L142.41,141.2828 L70.4225,141.2828 " fill="#FBFB77" filter="url(#ffqfbtmhnitl4)" style="stroke:#A80036;stroke-width:0.6259780907668232;"/><path d="M142.41,141.2828 L142.41,147.5425 L148.6698,147.5425 L142.41,141.2828 " fill="#FBFB77" style="stroke:#A80036;stroke-width:0.6259780907668232;"/><text fill="#000000" font-family="sans-serif" font-size="8.1377" lengthAdjust="spacing" textLength="65.1017" x="74.1784" y="152.2802">ビジネスロジック</text><!--MD5=[461a1631904403ba84c8a15b684d417d]
link GMN12 to components--><path d="M376.2128,278.1904 C376.2128,282.0558 376.2128,287.1255 376.2128,292.5893 C376.2128,292.6747 376.2128,292.7601 376.2128,292.8457 " fill="none" id="GMN12-components" style="stroke:#A80036;stroke-width:0.6259780907668232;stroke-dasharray:7.0,7.0;"/><!--MD5=[c0b237845a10662ab153fdd861487416]
link index to App--><path d="M26.2911,40.3375 C26.2911,49.8774 26.2911,63.8555 26.2911,74.2781 " fill="none" id="index-to-App" style="stroke:#A80036;stroke-width:0.6259780907668232;stroke-dasharray:7.0,7.0;"/><polygon fill="#A80036" points="26.2911,77.6646,28.795,72.0308,26.2911,74.5347,23.7872,72.0308,26.2911,77.6646" style="stroke:#A80036;stroke-width:0.6259780907668232;"/><!--MD5=[2980d0585f74092fad27cedda57666b0]
link App to routers--><path d="M26.2911,100.4314 C26.2911,109.9713 26.2911,123.9494 26.2911,134.372 " fill="none" id="App-to-routers" style="stroke:#A80036;stroke-width:0.6259780907668232;stroke-dasharray:7.0,7.0;"/><polygon fill="#A80036" points="26.2911,137.7585,28.795,132.1247,26.2911,134.6286,23.7872,132.1247,26.2911,137.7585" style="stroke:#A80036;stroke-width:0.6259780907668232;"/><!--MD5=[24cf9cf451d7f1909271b667238ce8f8]
link routers to adapters--><path d="M28.626,160.4565 C30.9421,171.0856 34.4977,187.4111 37.0329,199.0355 " fill="none" id="routers-to-adapters" style="stroke:#A80036;stroke-width:0.6259780907668232;stroke-dasharray:7.0,7.0;"/><polygon fill="#A80036" points="37.7152,202.1779,38.9542,196.1385,37.0447,199.1207,34.0626,197.2112,37.7152,202.1779" style="stroke:#A80036;stroke-width:0.6259780907668232;"/><!--MD5=[beb0bcf5720fcd9f7ba214a16ab0694e]
link pages to templates--><path d="M59.2551,331.2671 C65.3959,331.2671 71.543,331.2671 77.6839,331.2671 " fill="none" id="pages-to-templates" style="stroke:#A80036;stroke-width:0.6259780907668232;stroke-dasharray:7.0,7.0;"/><polygon fill="#A80036" points="80.9014,331.2671,75.2676,328.7632,77.7715,331.2671,75.2676,333.771,80.9014,331.2671" style="stroke:#A80036;stroke-width:0.6259780907668232;"/><!--MD5=[c5c406968b7eb7b3fa6188a71b19b00d]
link adapters to pages--><path d="M40.0626,224.9573 C40.0626,246.0965 40.0626,293.0825 40.0626,316.6255 " fill="none" id="adapters-to-pages" style="stroke:#A80036;stroke-width:0.6259780907668232;stroke-dasharray:7.0,7.0;"/><polygon fill="#A80036" points="40.0626,319.9244,42.5665,314.2906,40.0626,316.7945,37.5587,314.2906,40.0626,319.9244" style="stroke:#A80036;stroke-width:0.6259780907668232;"/><!--MD5=[151e0cde9710f9d183fab5a569000b55]
link organisms to molecules--><path d="M215.5055,331.2671 C221.759,331.2671 228.0125,331.2671 234.266,331.2671 " fill="none" id="organisms-to-molecules" style="stroke:#A80036;stroke-width:0.6259780907668232;stroke-dasharray:7.0,7.0;"/><polygon fill="#A80036" points="237.5336,331.2671,231.8998,328.7632,234.4038,331.2671,231.8998,333.771,237.5336,331.2671" style="stroke:#A80036;stroke-width:0.6259780907668232;"/><!--MD5=[50cb16575eff6aac3159d2d9bebd4a82]
link molecules to atoms--><path d="M293.3709,331.2671 C299.6307,331.2671 305.8967,331.2671 312.1565,331.2671 " fill="none" id="molecules-to-atoms" style="stroke:#A80036;stroke-width:0.6259780907668232;stroke-dasharray:7.0,7.0;"/><polygon fill="#A80036" points="315.4304,331.2671,309.7966,328.7632,312.3005,331.2671,309.7966,333.771,315.4304,331.2671" style="stroke:#A80036;stroke-width:0.6259780907668232;"/><!--MD5=[00639ab4ea360f4acc44c873533fd978]
link templates to organisms--><path d="M135.8059,331.2671 C141.9906,331.2671 148.1815,331.2671 154.3662,331.2671 " fill="none" id="templates-to-organisms" style="stroke:#A80036;stroke-width:0.6259780907668232;stroke-dasharray:7.0,7.0;"/><polygon fill="#A80036" points="157.6025,331.2671,151.9687,328.7632,154.4726,331.2671,151.9687,333.771,157.6025,331.2671" style="stroke:#A80036;stroke-width:0.6259780907668232;"/><!--MD5=[34c7576c9e76fc9506a6bd6317603c58]
link adapters to core--><path d="M65.3083,213.5832 C70.3474,213.5832 75.385,213.5832 80.4225,213.5832 C82.9413,213.5832 85.4601,213.5832 87.9791,213.5832 C88.6088,213.5832 89.2386,213.5832 89.8683,213.5832 C90.0258,213.5832 90.1832,213.5832 90.3407,213.5832 C90.4194,213.5832 90.4981,213.5832 90.5768,213.5832 C90.6162,213.5832 90.6556,213.5832 90.6949,213.5832 " fill="none" id="adapters-to-core" style="stroke:#A80036;stroke-width:0.6259780907668232;stroke-dasharray:7.0,7.0;"/><polygon fill="#A80036" points="90.6949,213.5832,85.0611,211.0793,87.565,213.5832,85.0611,216.0871,90.6949,213.5832" style="stroke:#A80036;stroke-width:0.6259780907668232;"/><!--MD5=[c2d8e5056cb43dfc4f5f6ecbd067eae8]
link store to slices--><path d="M152.5696,213.5832 C158.7167,213.5832 164.8638,213.5832 171.011,213.5832 " fill="none" id="store-to-slices" style="stroke:#A80036;stroke-width:0.6259780907668232;stroke-dasharray:7.0,7.0;"/><polygon fill="#A80036" points="174.2285,213.5832,168.5947,211.0793,171.0986,213.5832,168.5947,216.0871,174.2285,213.5832" style="stroke:#A80036;stroke-width:0.6259780907668232;"/><!--MD5=[b32ac42b031162020e09dba99d09c98b]
link slices to usecases--><path d="M210.2285,213.5832 C216.3881,213.5832 222.5415,213.5832 228.6948,213.5832 " fill="none" id="slices-to-usecases" style="stroke:#A80036;stroke-width:0.6259780907668232;stroke-dasharray:7.0,7.0;"/><polygon fill="#A80036" points="231.9186,213.5832,226.2848,211.0793,228.7887,213.5832,226.2848,216.0871,231.9186,213.5832" style="stroke:#A80036;stroke-width:0.6259780907668232;"/><!--MD5=[f2f01508f9d36582a9ace8acff38dafa]
link usecases to gateways--><path d="M282.7418,213.5832 C288.8826,213.5832 295.0297,213.5832 301.1768,213.5832 " fill="none" id="usecases-to-gateways" style="stroke:#A80036;stroke-width:0.6259780907668232;stroke-dasharray:7.0,7.0;"/><polygon fill="#A80036" points="304.3881,213.5832,298.7543,211.0793,301.2582,213.5832,298.7543,216.0871,304.3881,213.5832" style="stroke:#A80036;stroke-width:0.6259780907668232;"/><!--MD5=[6cefdda6fdab52a57567944956d91224]
link GMN32 to core--><path d="M107.9687,156.9886 C107.0782,161.0746 105.8877,166.539 104.5987,172.4559 C104.4376,173.1955 104.2749,173.9422 104.1111,174.6941 C104.0701,174.8821 104.0291,175.0704 103.988,175.259 " fill="none" id="GMN32-core" style="stroke:#A80036;stroke-width:0.6259780907668232;stroke-dasharray:7.0,7.0;"/><!--MD5=[72f6cdd4f5d1388a8b1e083ae23ba3bf]
@startuml dependencies
scale 400 width
title  React サンプルプロジェクト 依存関係図

skinparam packageStyle Rectangle

rectangle index
rectangle App
rectangle routers
rectangle adapters
package components {
  rectangle pages
  rectangle organisms
  rectangle molecules
  rectangle atoms
  rectangle templates
}

note top of components
  UI 部品
end note

index ..> App
App ..> routers
routers ..> adapters
pages .> templates
adapters ...> pages
organisms .> molecules
molecules .> atoms
templates .> organisms

package core {
  rectangle gateways
  rectangle slices
  rectangle store
  rectangle usecases
}

adapters .> core
store .> slices
slices .> usecases
usecases .> gateways

note top of core
  ビジネスロジック
end note

@enduml

PlantUML version 1.2022.0(Wed Jan 12 01:16:42 JST 2022)
(GPL source distribution)
Java Runtime: OpenJDK Runtime Environment
JVM: OpenJDK 64-Bit Server VM
Default Encoding: UTF-8
Language: ja
Country: JP
--></g></svg>