<?xml version="1.0" encoding="UTF-8" standalone="no"?><svg xmlns="http://www.w3.org/2000/svg" xmlns:xlink="http://www.w3.org/1999/xlink" contentScriptType="application/ecmascript" contentStyleType="text/css" height="530.4px" preserveAspectRatio="none" style="width:534px;height:530px;background:#FFFFFF;" version="1.1" viewBox="0 0 534 530" width="534.4px" zoomAndPan="magnify"><defs/><g><!--MD5=[67a6735b2a5707e03290b64fb931c9ce]
cluster components--><rect fill="#FFFFFF" height="395.2" style="stroke:#000000;stroke-width:1.2000000000000002;" width="118.4" x="5.6" y="130.4"/><text fill="#000000" font-family="sans-serif" font-size="11.2" font-weight="bold" lengthAdjust="spacing" textLength="70.4" x="29.6" y="142.8281">components</text><!--MD5=[01435ace8273dc3cae88e7f376e4d373]
cluster core--><rect fill="#FFFFFF" height="318.4" style="stroke:#000000;stroke-width:1.2000000000000002;" width="112" x="417.6" y="130.4"/><text fill="#000000" font-family="sans-serif" font-size="11.2" font-weight="bold" lengthAdjust="spacing" textLength="24" x="461.6" y="142.8281">core</text><!--MD5=[7552260fd2021a323855cf929da74f79]
cluster modules--><rect fill="#FFFFFF" height="159.2" style="stroke:#000000;stroke-width:1.2000000000000002;" width="229.6" x="156" y="366.4"/><text fill="#000000" font-family="sans-serif" font-size="11.2" font-weight="bold" lengthAdjust="spacing" textLength="49.6" x="246" y="378.8281">modules</text><!--MD5=[85f4d1a33338ddce045f9b827d37a273]
entity pages--><rect fill="#FEFECE" height="29.1906" style="stroke:#000000;stroke-width:1.2000000000000002;" width="48.8" x="37.2" y="164.8"/><text fill="#000000" font-family="sans-serif" font-size="11.2" lengthAdjust="spacing" textLength="32.8" x="45.2" y="183.6281">pages</text><!--MD5=[b6cc7475285a593b5cc9fc221385c7bb]
entity organisms--><rect fill="#FEFECE" height="29.1906" style="stroke:#000000;stroke-width:1.2000000000000002;" width="73.6" x="24.8" y="318.4"/><text fill="#000000" font-family="sans-serif" font-size="11.2" lengthAdjust="spacing" textLength="57.6" x="32.8" y="337.2281">organisms</text><!--MD5=[449dffa8e95e04b1e6c5f80ed83d8145]
entity molecules--><rect fill="#FEFECE" height="29.1906" style="stroke:#000000;stroke-width:1.2000000000000002;" width="71.2" x="26" y="400.8"/><text fill="#000000" font-family="sans-serif" font-size="11.2" lengthAdjust="spacing" textLength="55.2" x="34" y="419.6281">molecules</text><!--MD5=[ba206de70ec52031b239008c66b74954]
entity atoms--><rect fill="#FEFECE" height="29.1906" style="stroke:#000000;stroke-width:1.2000000000000002;" width="49.6" x="36.8" y="477.6"/><text fill="#000000" font-family="sans-serif" font-size="11.2" lengthAdjust="spacing" textLength="33.6" x="44.8" y="496.4281">atoms</text><!--MD5=[4973cff6d5222f460e58305e2909ce55]
entity templates--><rect fill="#FEFECE" height="29.1906" style="stroke:#000000;stroke-width:1.2000000000000002;" width="69.6" x="26.8" y="241.6"/><text fill="#000000" font-family="sans-serif" font-size="11.2" lengthAdjust="spacing" textLength="53.6" x="34.8" y="260.4281">templates</text><!--MD5=[ecd40efa396aed24c560a3b32142d2b5]
entity gateways--><rect fill="#FEFECE" height="29.1906" style="stroke:#000000;stroke-width:1.2000000000000002;" width="66.4" x="443.6" y="400.8"/><text fill="#000000" font-family="sans-serif" font-size="11.2" lengthAdjust="spacing" textLength="50.4" x="451.6" y="419.6281">gateways</text><!--MD5=[ac2385813f1b79deff9596fc3d11e257]
entity slices--><rect fill="#FEFECE" height="29.1906" style="stroke:#000000;stroke-width:1.2000000000000002;" width="45.6" x="454" y="241.6"/><text fill="#000000" font-family="sans-serif" font-size="11.2" lengthAdjust="spacing" textLength="29.6" x="462" y="260.4281">slices</text><!--MD5=[0686720d71d32ea68f81164171d509ce]
entity store--><rect fill="#FEFECE" height="29.1906" style="stroke:#000000;stroke-width:1.2000000000000002;" width="44" x="454.8" y="164.8"/><text fill="#000000" font-family="sans-serif" font-size="11.2" lengthAdjust="spacing" textLength="28" x="462.8" y="183.6281">store</text><!--MD5=[fd2f3c0334b9635c2a48f5a2d6be6392]
entity usecases--><rect fill="#FEFECE" height="29.1906" style="stroke:#000000;stroke-width:1.2000000000000002;" width="64.8" x="444.4" y="318.4"/><text fill="#000000" font-family="sans-serif" font-size="11.2" lengthAdjust="spacing" textLength="48.8" x="452.4" y="337.2281">usecases</text><!--MD5=[cb3d66c929489a99ecf6c8633ae21583]
entity react--><rect fill="#FEFECE" height="29.1906" style="stroke:#000000;stroke-width:1.2000000000000002;" width="43.2" x="212" y="400.8"/><text fill="#000000" font-family="sans-serif" font-size="11.2" lengthAdjust="spacing" textLength="27.2" x="220" y="419.6281">react</text><!--MD5=[8d89a1466637a6afe86506d20e8ad491]
entity react-redux--><rect fill="#FEFECE" height="29.1906" style="stroke:#000000;stroke-width:1.2000000000000002;" width="82.4" x="283.6" y="400.8"/><text fill="#000000" font-family="sans-serif" font-size="11.2" lengthAdjust="spacing" textLength="66.4" x="291.6" y="419.6281">react-redux</text><!--MD5=[8b3071e04b49870aac409014903e1f44]
entity react-router-dom--><rect fill="#FEFECE" height="29.1906" style="stroke:#000000;stroke-width:1.2000000000000002;" width="115.2" x="181.6" y="477.6"/><text fill="#000000" font-family="sans-serif" font-size="11.2" lengthAdjust="spacing" textLength="99.2" x="189.6" y="496.4281">react-router-dom</text><!--MD5=[b922248f63547c046d6a1226270355e8]
entity etc...--><rect fill="#FEFECE" height="29.1906" style="stroke:#000000;stroke-width:1.2000000000000002;" width="41.6" x="324.8" y="477.6"/><text fill="#000000" font-family="sans-serif" font-size="11.2" lengthAdjust="spacing" textLength="25.6" x="332.8" y="496.4281">etc...</text><!--MD5=[b30b38ce4569dacde3f8306bd4ec7604]
entity index--><rect fill="#FEFECE" height="29.1906" style="stroke:#000000;stroke-width:1.2000000000000002;" width="47.2" x="93.2" y="5.6"/><text fill="#000000" font-family="sans-serif" font-size="11.2" lengthAdjust="spacing" textLength="31.2" x="101.2" y="24.4281">index</text><!--MD5=[6e8f311b0aa23032184ffba0ef926f91]
entity App--><rect fill="#FEFECE" height="29.1906" style="stroke:#000000;stroke-width:1.2000000000000002;" width="38.4" x="168.8" y="5.6"/><text fill="#000000" font-family="sans-serif" font-size="11.2" lengthAdjust="spacing" textLength="22.4" x="176.8" y="24.4281">App</text><!--MD5=[58b0dd66ef19f0813ca5dbc778434f73]
entity routers--><rect fill="#FEFECE" height="29.1906" style="stroke:#000000;stroke-width:1.2000000000000002;" width="56" x="235.2" y="5.6"/><text fill="#000000" font-family="sans-serif" font-size="11.2" lengthAdjust="spacing" textLength="40" x="243.2" y="24.4281">routers</text><!--MD5=[0bb9c21cf77994669bd82826522e1a46]
entity adapters--><rect fill="#FEFECE" height="29.1906" style="stroke:#000000;stroke-width:1.2000000000000002;" width="64" x="231.2" y="82.4"/><text fill="#000000" font-family="sans-serif" font-size="11.2" lengthAdjust="spacing" textLength="48" x="239.2" y="101.2281">adapters</text><path d="M92,86.8 L92,107.0484 L143.2,107.0484 L143.2,94.8 L135.2,86.8 L92,86.8 " fill="#FBFB77" style="stroke:#A80036;stroke-width:0.8000000000000002;"/><path d="M135.2,86.8 L135.2,94.8 L143.2,94.8 L135.2,86.8 " fill="#FBFB77" style="stroke:#A80036;stroke-width:0.8000000000000002;"/><text fill="#000000" font-family="sans-serif" font-size="10.4" lengthAdjust="spacing" textLength="34.4" x="96.8" y="100.8547">UI 部品</text><path d="M382.8,86.8 L382.8,107.0484 L465.2,107.0484 L465.2,94.8 L457.2,86.8 L382.8,86.8 " fill="#FBFB77" style="stroke:#A80036;stroke-width:0.8000000000000002;"/><path d="M457.2,86.8 L457.2,94.8 L465.2,94.8 L457.2,86.8 " fill="#FBFB77" style="stroke:#A80036;stroke-width:0.8000000000000002;"/><text fill="#000000" font-family="sans-serif" font-size="10.4" lengthAdjust="spacing" textLength="65.6" x="387.6" y="100.8547">UI 以外の部品</text><!--MD5=[941c270db219c417e349b4215329ba1c]
link GMN7 to components--><path d="M117.6,106.872 C117.6,112.094 117.6,119.0775 117.6,126.6393 C117.6,127.5845 117.6,128.5387 117.6,129.4997 C117.6,129.7399 117.6,129.9806 117.6,130.2217 " fill="none" id="GMN7-components" style="stroke:#A80036;stroke-width:0.8000000000000002;stroke-dasharray:7.0,7.0;"/><!--MD5=[730cc59fb3be6348b6ef09554895e269]
link GMN11 to core--><path d="M424,106.872 C424,112.094 424,119.0775 424,126.6393 C424,127.5845 424,128.5387 424,129.4997 C424,129.7399 424,129.9806 424,130.2217 " fill="none" id="GMN11-core" style="stroke:#A80036;stroke-width:0.8000000000000002;stroke-dasharray:7.0,7.0;"/><!--MD5=[c0b237845a10662ab153fdd861487416]
link index to App--><path d="M140.44,20 C148.456,20 156.472,20 164.488,20 " fill="none" id="index-to-App" style="stroke:#A80036;stroke-width:0.8000000000000002;"/><polygon fill="#A80036" points="168.68,20,161.48,16.8,164.68,20,161.48,23.2,168.68,20" style="stroke:#A80036;stroke-width:0.8000000000000002;"/><!--MD5=[2980d0585f74092fad27cedda57666b0]
link App to routers--><path d="M207.384,20 C215.248,20 223.104,20 230.968,20 " fill="none" id="App-to-routers" style="stroke:#A80036;stroke-width:0.8000000000000002;"/><polygon fill="#A80036" points="235.072,20,227.872,16.8,231.072,20,227.872,23.2,235.072,20" style="stroke:#A80036;stroke-width:0.8000000000000002;"/><!--MD5=[24cf9cf451d7f1909271b667238ce8f8]
link routers to adapters--><path d="M263.2,34.592 C263.2,46.784 263.2,64.648 263.2,77.968 " fill="none" id="routers-to-adapters" style="stroke:#A80036;stroke-width:0.8000000000000002;"/><polygon fill="#A80036" points="263.2,82.296,266.4,75.096,263.2,78.296,260,75.096,263.2,82.296" style="stroke:#A80036;stroke-width:0.8000000000000002;"/><!--MD5=[beb0bcf5720fcd9f7ba214a16ab0694e]
link pages to templates--><path d="M61.6,193.792 C61.6,205.984 61.6,223.848 61.6,237.168 " fill="none" id="pages-to-templates" style="stroke:#A80036;stroke-width:0.8000000000000002;"/><polygon fill="#A80036" points="61.6,241.496,64.8,234.296,61.6,237.496,58.4,234.296,61.6,241.496" style="stroke:#A80036;stroke-width:0.8000000000000002;"/><!--MD5=[151e0cde9710f9d183fab5a569000b55]
link organisms to molecules--><path d="M61.6,347.304 C61.6,360.888 61.6,381.752 61.6,396.608 " fill="none" id="organisms-to-molecules" style="stroke:#A80036;stroke-width:0.8000000000000002;"/><polygon fill="#A80036" points="61.6,400.624,64.8,393.424,61.6,396.624,58.4,393.424,61.6,400.624" style="stroke:#A80036;stroke-width:0.8000000000000002;"/><!--MD5=[50cb16575eff6aac3159d2d9bebd4a82]
link molecules to atoms--><path d="M61.6,429.792 C61.6,441.984 61.6,459.848 61.6,473.168 " fill="none" id="molecules-to-atoms" style="stroke:#A80036;stroke-width:0.8000000000000002;"/><polygon fill="#A80036" points="61.6,477.496,64.8,470.296,61.6,473.496,58.4,470.296,61.6,477.496" style="stroke:#A80036;stroke-width:0.8000000000000002;"/><!--MD5=[00639ab4ea360f4acc44c873533fd978]
link templates to organisms--><path d="M61.6,270.592 C61.6,282.784 61.6,300.648 61.6,313.968 " fill="none" id="templates-to-organisms" style="stroke:#A80036;stroke-width:0.8000000000000002;"/><polygon fill="#A80036" points="61.6,318.296,64.8,311.096,61.6,314.296,58.4,311.096,61.6,318.296" style="stroke:#A80036;stroke-width:0.8000000000000002;"/><!--MD5=[c2d8e5056cb43dfc4f5f6ecbd067eae8]
link store to slices--><path d="M476.8,193.792 C476.8,205.984 476.8,223.848 476.8,237.168 " fill="none" id="store-to-slices" style="stroke:#A80036;stroke-width:0.8000000000000002;"/><polygon fill="#A80036" points="476.8,241.496,480,234.296,476.8,237.496,473.6,234.296,476.8,241.496" style="stroke:#A80036;stroke-width:0.8000000000000002;"/><!--MD5=[b32ac42b031162020e09dba99d09c98b]
link slices to usecases--><path d="M476.8,270.592 C476.8,282.784 476.8,300.648 476.8,313.968 " fill="none" id="slices-to-usecases" style="stroke:#A80036;stroke-width:0.8000000000000002;"/><polygon fill="#A80036" points="476.8,318.296,480,311.096,476.8,314.296,473.6,311.096,476.8,318.296" style="stroke:#A80036;stroke-width:0.8000000000000002;"/><!--MD5=[f2f01508f9d36582a9ace8acff38dafa]
link usecases to gateways--><path d="M476.8,347.304 C476.8,360.888 476.8,381.752 476.8,396.608 " fill="none" id="usecases-to-gateways" style="stroke:#A80036;stroke-width:0.8000000000000002;"/><polygon fill="#A80036" points="476.8,400.624,480,393.424,476.8,396.624,473.6,393.424,476.8,400.624" style="stroke:#A80036;stroke-width:0.8000000000000002;"/><!--MD5=[c0557cc87b32abb25ee369a905a6c5f2]
link adapters to components--><path d="M238.504,111.304 C218.056,122.652 188.448,139.084 163.65,152.846 C151.251,159.727 140.0545,165.9405 131.8068,170.5173 C129.7448,171.6614 127.8672,172.7033 126.2011,173.6278 C125.7846,173.8589 125.3813,174.0827 124.9917,174.2989 C124.7968,174.407 124.6054,174.5132 124.4175,174.6174 C124.3235,174.6696 124.2304,174.7212 124.1382,174.7724 " fill="none" id="adapters-to-components" style="stroke:#A80036;stroke-width:0.8000000000000002;"/><polygon fill="#A80036" points="124.1382,174.7724,131.9866,174.0773,127.6359,172.8317,128.8815,168.481,124.1382,174.7724" style="stroke:#A80036;stroke-width:0.8000000000000002;"/><!--MD5=[34c7576c9e76fc9506a6bd6317603c58]
link adapters to core--><path d="M290.48,111.304 C313.06,122.652 345.758,139.084 373.144,152.846 C386.837,159.727 399.202,165.9405 408.3103,170.5173 C410.5873,171.6614 412.6608,172.7033 414.5007,173.6278 C415.4206,174.09 416.2821,174.5229 417.0814,174.9245 C417.1813,174.9747 417.2802,175.0244 417.3782,175.0736 " fill="none" id="adapters-to-core" style="stroke:#A80036;stroke-width:0.8000000000000002;"/><polygon fill="#A80036" points="417.3782,175.0736,412.3813,168.9817,413.804,173.2778,409.508,174.7005,417.3782,175.0736" style="stroke:#A80036;stroke-width:0.8000000000000002;"/><!--MD5=[d243f81a95eac696e02dc62d6599d485]
link core to modules--><path d="M417.4937,182.101 C417.3493,182.1493 417.2026,182.1985 417.0537,182.2485 C416.756,182.3484 416.4493,182.4517 416.1339,182.5584 C415.5031,182.7717 414.8373,182.9985 414.1376,183.2386 C408.5402,185.1597 400.7731,187.9394 391.3936,191.5888 C372.6348,198.8875 347.4265,209.665 320.227,224.01 C265.828,252.7 203.464,295.66 168.8,353.6 C167.111,356.424 165.7373,359.4556 164.6272,362.6032 C164.3496,363.3901 164.0886,364.1842 163.8432,364.9841 C163.7205,365.3841 163.6018,365.7855 163.4868,366.1882 " fill="none" id="core-to-modules" style="stroke:#A80036;stroke-width:0.8000000000000002;"/><polygon fill="#A80036" points="163.4868,366.1882,168.5402,360.1431,164.5848,362.3419,162.386,358.3864,163.4868,366.1882" style="stroke:#A80036;stroke-width:0.8000000000000002;"/><!--MD5=[6af21ca627055cd52fbdfbc9d03226e2]
link components to modules--><path d="M124.0295,213.6502 C124.2798,214.96 124.5357,216.2989 124.7968,217.665 C128.974,239.523 134.487,268.368 140,297.212 C145.513,326.056 151.026,354.899 155.2033,376.753 C155.4643,378.1189 155.7202,379.4574 155.9705,380.767 " fill="none" id="components-to-modules" style="stroke:#A80036;stroke-width:0.8000000000000002;"/><polygon fill="#A80036" points="155.9705,380.767,157.7618,373.0943,155.2195,376.8381,151.4756,374.2958,155.9705,380.767" style="stroke:#A80036;stroke-width:0.8000000000000002;"/><!--MD5=[94a6b4def3ded1e6a2c13a45a8b38c29]
link react to react-redux--><!--MD5=[065c720f873d7b24791e03675393e901]
link react to react-router-dom--><!--MD5=[52b94c39169ac15ebe623617b381108e]
link react-router-dom to etc...--><!--MD5=[da17c9fe6990a0d46b669a65ec765512]
@startuml dependencies
' title  React サンプルプロジェクト 依存関係図
skinparam shadowing false
scale 0.8
' scale 400 width

skinparam packageStyle Rectangle

rectangle index
rectangle App
rectangle routers
rectangle adapters

note top of components
  UI 部品
end note

note top of core
  UI 以外の部品
end note

package components {
  rectangle pages
  rectangle organisms
  rectangle molecules
  rectangle atoms
  rectangle templates
}

package core {
  rectangle gateways
  rectangle slices
  rectangle store
  rectangle usecases
}

index -> App
App -> routers
routers - -> adapters
pages - -> templates
organisms - -> molecules
molecules - -> atoms
templates - -> organisms

store - -> slices
slices - -> usecases
usecases - -> gateways

adapters - -> components
adapters - -> core

package modules {
  rectangle react
  rectangle "react-redux"
  rectangle "react-router-dom"
  rectangle "etc..."
}

core - - - -> modules
components - - - -> modules

@enduml

@startuml dependencies
skinparam shadowing false
scale 0.8

skinparam packageStyle Rectangle

rectangle index
rectangle App
rectangle routers
rectangle adapters

note top of components
  UI 部品
end note

note top of core
  UI 以外の部品
end note

package components {
  rectangle pages
  rectangle organisms
  rectangle molecules
  rectangle atoms
  rectangle templates
}

package core {
  rectangle gateways
  rectangle slices
  rectangle store
  rectangle usecases
}

index -> App
App -> routers
routers - -> adapters
pages - -> templates
organisms - -> molecules
molecules - -> atoms
templates - -> organisms

store - -> slices
slices - -> usecases
usecases - -> gateways

adapters - -> components
adapters - -> core

package modules {
  rectangle react
  rectangle "react-redux"
  rectangle "react-router-dom"
  rectangle "etc..."
}

core - - - -> modules
components - - - -> modules

@enduml

PlantUML version 1.2022.0(Wed Jan 12 01:16:42 JST 2022)
(GPL source distribution)
Java Runtime: OpenJDK Runtime Environment
JVM: OpenJDK 64-Bit Server VM
Default Encoding: UTF-8
Language: ja
Country: JP
--></g></svg>