<?xml version="1.0" encoding="UTF-8" standalone="no"?><svg xmlns="http://www.w3.org/2000/svg" xmlns:xlink="http://www.w3.org/1999/xlink" contentScriptType="application/ecmascript" contentStyleType="text/css" height="381.6px" preserveAspectRatio="none" style="width:658px;height:381px;background:#FFFFFF;" version="1.1" viewBox="0 0 658 381" width="658.4px" zoomAndPan="magnify"><defs/><g><!--MD5=[67a6735b2a5707e03290b64fb931c9ce]
cluster components--><rect fill="#FFFFFF" height="82.4" style="stroke:#000000;stroke-width:1.2000000000000002;" width="480" x="174" y="130.4"/><text fill="#000000" font-family="sans-serif" font-size="11.2" font-weight="bold" lengthAdjust="spacing" textLength="70.4" x="378.8" y="142.8281">components</text><!--MD5=[01435ace8273dc3cae88e7f376e4d373]
cluster core--><rect fill="#FFFFFF" height="82.4" style="stroke:#000000;stroke-width:1.2000000000000002;" width="359.2" x="103.6" y="244.8"/><text fill="#000000" font-family="sans-serif" font-size="11.2" font-weight="bold" lengthAdjust="spacing" textLength="24" x="271.2" y="257.2281">core</text><!--MD5=[85f4d1a33338ddce045f9b827d37a273]
entity pages--><rect fill="#FEFECE" height="29.1906" style="stroke:#000000;stroke-width:1.2000000000000002;" width="48.8" x="208.8" y="164.8"/><text fill="#000000" font-family="sans-serif" font-size="11.2" lengthAdjust="spacing" textLength="32.8" x="216.8" y="183.6281">pages</text><!--MD5=[b6cc7475285a593b5cc9fc221385c7bb]
entity organisms--><rect fill="#FEFECE" height="29.1906" style="stroke:#000000;stroke-width:1.2000000000000002;" width="73.6" x="383.6" y="164.8"/><text fill="#000000" font-family="sans-serif" font-size="11.2" lengthAdjust="spacing" textLength="57.6" x="391.6" y="183.6281">organisms</text><!--MD5=[449dffa8e95e04b1e6c5f80ed83d8145]
entity molecules--><rect fill="#FEFECE" height="29.1906" style="stroke:#000000;stroke-width:1.2000000000000002;" width="71.2" x="485.6" y="164.8"/><text fill="#000000" font-family="sans-serif" font-size="11.2" lengthAdjust="spacing" textLength="55.2" x="493.6" y="183.6281">molecules</text><!--MD5=[ba206de70ec52031b239008c66b74954]
entity atoms--><rect fill="#FEFECE" height="29.1906" style="stroke:#000000;stroke-width:1.2000000000000002;" width="49.6" x="585.2" y="164.8"/><text fill="#000000" font-family="sans-serif" font-size="11.2" lengthAdjust="spacing" textLength="33.6" x="593.2" y="183.6281">atoms</text><!--MD5=[4973cff6d5222f460e58305e2909ce55]
entity templates--><rect fill="#FEFECE" height="29.1906" style="stroke:#000000;stroke-width:1.2000000000000002;" width="69.6" x="285.6" y="164.8"/><text fill="#000000" font-family="sans-serif" font-size="11.2" lengthAdjust="spacing" textLength="53.6" x="293.6" y="183.6281">templates</text><!--MD5=[ecd40efa396aed24c560a3b32142d2b5]
entity gateways--><rect fill="#FEFECE" height="29.1906" style="stroke:#000000;stroke-width:1.2000000000000002;" width="66.4" x="376.8" y="279.2"/><text fill="#000000" font-family="sans-serif" font-size="11.2" lengthAdjust="spacing" textLength="50.4" x="384.8" y="298.0281">gateways</text><!--MD5=[ac2385813f1b79deff9596fc3d11e257]
entity slices--><rect fill="#FEFECE" height="29.1906" style="stroke:#000000;stroke-width:1.2000000000000002;" width="45.6" x="210.4" y="279.2"/><text fill="#000000" font-family="sans-serif" font-size="11.2" lengthAdjust="spacing" textLength="29.6" x="218.4" y="298.0281">slices</text><!--MD5=[0686720d71d32ea68f81164171d509ce]
entity store--><rect fill="#FEFECE" height="29.1906" style="stroke:#000000;stroke-width:1.2000000000000002;" width="44" x="138.4" y="279.2"/><text fill="#000000" font-family="sans-serif" font-size="11.2" lengthAdjust="spacing" textLength="28" x="146.4" y="298.0281">store</text><!--MD5=[fd2f3c0334b9635c2a48f5a2d6be6392]
entity usecases--><rect fill="#FEFECE" height="29.1906" style="stroke:#000000;stroke-width:1.2000000000000002;" width="64.8" x="284" y="279.2"/><text fill="#000000" font-family="sans-serif" font-size="11.2" lengthAdjust="spacing" textLength="48.8" x="292" y="298.0281">usecases</text><!--MD5=[b30b38ce4569dacde3f8306bd4ec7604]
entity index--><rect fill="#FEFECE" height="29.1906" style="stroke:#000000;stroke-width:1.2000000000000002;" width="47.2" x="5.6" y="5.6"/><text fill="#000000" font-family="sans-serif" font-size="11.2" lengthAdjust="spacing" textLength="31.2" x="13.6" y="24.4281">index</text><!--MD5=[6e8f311b0aa23032184ffba0ef926f91]
entity App--><rect fill="#FEFECE" height="29.1906" style="stroke:#000000;stroke-width:1.2000000000000002;" width="38.4" x="10" y="82.4"/><text fill="#000000" font-family="sans-serif" font-size="11.2" lengthAdjust="spacing" textLength="22.4" x="18" y="101.2281">App</text><!--MD5=[58b0dd66ef19f0813ca5dbc778434f73]
entity routers--><rect fill="#FEFECE" height="29.1906" style="stroke:#000000;stroke-width:1.2000000000000002;" width="56" x="76.4" y="82.4"/><text fill="#000000" font-family="sans-serif" font-size="11.2" lengthAdjust="spacing" textLength="40" x="84.4" y="101.2281">routers</text><!--MD5=[0bb9c21cf77994669bd82826522e1a46]
entity adapters--><rect fill="#FEFECE" height="29.1906" style="stroke:#000000;stroke-width:1.2000000000000002;" width="64" x="78" y="164.8"/><text fill="#000000" font-family="sans-serif" font-size="11.2" lengthAdjust="spacing" textLength="48" x="86" y="183.6281">adapters</text><path d="M160.4,86.8 L160.4,107.0484 L211.6,107.0484 L211.6,94.8 L203.6,86.8 L160.4,86.8 " fill="#FBFB77" style="stroke:#A80036;stroke-width:0.8000000000000002;"/><path d="M203.6,86.8 L203.6,94.8 L211.6,94.8 L203.6,86.8 " fill="#FBFB77" style="stroke:#A80036;stroke-width:0.8000000000000002;"/><text fill="#000000" font-family="sans-serif" font-size="10.4" lengthAdjust="spacing" textLength="34.4" x="165.2" y="100.8547">UI 部品</text><path d="M60,356 L60,376.2484 L160,376.2484 L160,364 L152,356 L60,356 " fill="#FBFB77" style="stroke:#A80036;stroke-width:0.8000000000000002;"/><path d="M152,356 L152,364 L160,364 L152,356 " fill="#FBFB77" style="stroke:#A80036;stroke-width:0.8000000000000002;"/><text fill="#000000" font-family="sans-serif" font-size="10.4" lengthAdjust="spacing" textLength="83.2" x="64.8" y="370.0547">ビジネスロジック</text><!--MD5=[cf6fc6d90a288299a028151e2059dfbf]
link GMN17 to components--><path d="M185.36,106.872 C184.998,112.094 184.514,119.0775 183.9899,126.6393 C183.9244,127.5845 183.8582,128.5387 183.7916,129.4997 C183.775,129.7399 183.7583,129.9806 183.7416,130.2217 " fill="none" id="GMN17-components" style="stroke:#A80036;stroke-width:0.8000000000000002;stroke-dasharray:7.0,7.0;"/><!--MD5=[c0b237845a10662ab153fdd861487416]
link index to App--><path d="M29.2,34.592 C29.2,46.784 29.2,64.648 29.2,77.968 " fill="none" id="index-to-App" style="stroke:#A80036;stroke-width:0.8000000000000002;"/><polygon fill="#A80036" points="29.2,82.296,32.4,75.096,29.2,78.296,26,75.096,29.2,82.296" style="stroke:#A80036;stroke-width:0.8000000000000002;"/><!--MD5=[2980d0585f74092fad27cedda57666b0]
link App to routers--><path d="M48.584,96.8 C56.448,96.8 64.304,96.8 72.168,96.8 " fill="none" id="App-to-routers" style="stroke:#A80036;stroke-width:0.8000000000000002;"/><polygon fill="#A80036" points="76.272,96.8,69.072,93.6,72.272,96.8,69.072,100,76.272,96.8" style="stroke:#A80036;stroke-width:0.8000000000000002;"/><!--MD5=[24cf9cf451d7f1909271b667238ce8f8]
link routers to adapters--><path d="M105.352,111.304 C106.288,124.888 107.736,145.752 108.768,160.608 " fill="none" id="routers-to-adapters" style="stroke:#A80036;stroke-width:0.8000000000000002;"/><polygon fill="#A80036" points="109.048,164.624,111.7254,157.2138,108.7622,160.6342,105.3417,157.671,109.048,164.624" style="stroke:#A80036;stroke-width:0.8000000000000002;"/><!--MD5=[beb0bcf5720fcd9f7ba214a16ab0694e]
link pages to templates--><path d="M257.728,179.2 C265.576,179.2 273.432,179.2 281.28,179.2 " fill="none" id="pages-to-templates" style="stroke:#A80036;stroke-width:0.8000000000000002;"/><polygon fill="#A80036" points="285.392,179.2,278.192,176,281.392,179.2,278.192,182.4,285.392,179.2" style="stroke:#A80036;stroke-width:0.8000000000000002;"/><!--MD5=[151e0cde9710f9d183fab5a569000b55]
link organisms to molecules--><path d="M457.416,179.2 C465.408,179.2 473.4,179.2 481.392,179.2 " fill="none" id="organisms-to-molecules" style="stroke:#A80036;stroke-width:0.8000000000000002;"/><polygon fill="#A80036" points="485.568,179.2,478.368,176,481.568,179.2,478.368,182.4,485.568,179.2" style="stroke:#A80036;stroke-width:0.8000000000000002;"/><!--MD5=[50cb16575eff6aac3159d2d9bebd4a82]
link molecules to atoms--><path d="M556.928,179.2 C564.928,179.2 572.936,179.2 580.936,179.2 " fill="none" id="molecules-to-atoms" style="stroke:#A80036;stroke-width:0.8000000000000002;"/><polygon fill="#A80036" points="585.12,179.2,577.92,176,581.12,179.2,577.92,182.4,585.12,179.2" style="stroke:#A80036;stroke-width:0.8000000000000002;"/><!--MD5=[00639ab4ea360f4acc44c873533fd978]
link templates to organisms--><path d="M355.56,179.2 C363.464,179.2 371.376,179.2 379.28,179.2 " fill="none" id="templates-to-organisms" style="stroke:#A80036;stroke-width:0.8000000000000002;"/><polygon fill="#A80036" points="383.416,179.2,376.216,176,379.416,179.2,376.216,182.4,383.416,179.2" style="stroke:#A80036;stroke-width:0.8000000000000002;"/><!--MD5=[c2d8e5056cb43dfc4f5f6ecbd067eae8]
link store to slices--><path d="M182.584,293.6 C190.44,293.6 198.296,293.6 206.152,293.6 " fill="none" id="store-to-slices" style="stroke:#A80036;stroke-width:0.8000000000000002;"/><polygon fill="#A80036" points="210.264,293.6,203.064,290.4,206.264,293.6,203.064,296.8,210.264,293.6" style="stroke:#A80036;stroke-width:0.8000000000000002;"/><!--MD5=[b32ac42b031162020e09dba99d09c98b]
link slices to usecases--><path d="M256.272,293.6 C264.144,293.6 272.008,293.6 279.872,293.6 " fill="none" id="slices-to-usecases" style="stroke:#A80036;stroke-width:0.8000000000000002;"/><polygon fill="#A80036" points="283.992,293.6,276.792,290.4,279.992,293.6,276.792,296.8,283.992,293.6" style="stroke:#A80036;stroke-width:0.8000000000000002;"/><!--MD5=[f2f01508f9d36582a9ace8acff38dafa]
link usecases to gateways--><path d="M348.944,293.6 C356.792,293.6 364.648,293.6 372.504,293.6 " fill="none" id="usecases-to-gateways" style="stroke:#A80036;stroke-width:0.8000000000000002;"/><polygon fill="#A80036" points="376.608,293.6,369.408,290.4,372.608,293.6,369.408,296.8,376.608,293.6" style="stroke:#A80036;stroke-width:0.8000000000000002;"/><!--MD5=[c0557cc87b32abb25ee369a905a6c5f2]
link adapters to components--><path d="M142.176,179.2 C148.496,179.2 154.816,179.2 161.137,179.2 C164.2975,179.2 167.4583,179.2 170.6194,179.2 C171.4097,179.2 172.2,179.2 172.9903,179.2 C173.1879,179.2 173.3855,179.2 173.583,179.2 C173.6818,179.2 173.7806,179.2 173.8794,179.2 " fill="none" id="adapters-to-components" style="stroke:#A80036;stroke-width:0.8000000000000002;"/><polygon fill="#A80036" points="173.8794,179.2,166.6794,176,169.8794,179.2,166.6794,182.4,173.8794,179.2" style="stroke:#A80036;stroke-width:0.8000000000000002;"/><!--MD5=[34c7576c9e76fc9506a6bd6317603c58]
link adapters to core--><path d="M110,193.608 C110,200.99 110,210.746 110,221.2605 C110,226.5178 110,231.9646 110,237.3992 C110,238.7578 110,240.1157 110,241.4696 C110,242.1466 110,242.8226 110,243.4972 C110,243.8345 110,244.1715 110,244.5081 " fill="none" id="adapters-to-core" style="stroke:#A80036;stroke-width:0.8000000000000002;"/><polygon fill="#A80036" points="110,244.5081,113.2,237.3081,110,240.5081,106.8,237.3081,110,244.5081" style="stroke:#A80036;stroke-width:0.8000000000000002;"/><!--MD5=[a0bf7e4c18bbe729fef18c9fd8215e88]
link core to GMN32--><path d="M110,327.3823 C110,327.8004 110,328.219 110,328.6378 C110,331.988 110,335.3521 110,338.6099 C110,345.1255 110,351.216 110,355.92 " fill="none" id="core-GMN32" style="stroke:#A80036;stroke-width:0.8000000000000002;stroke-dasharray:7.0,7.0;"/><!--MD5=[f2d21ba78b1704275af34675c6df60c4]
@startuml dependencies
' title  React サンプルプロジェクト 依存関係図
skinparam shadowing false
scale 0.8
' scale 400 width

skinparam packageStyle Rectangle

rectangle index
rectangle App
rectangle routers
rectangle adapters

package components {
  rectangle pages
  rectangle organisms
  rectangle molecules
  rectangle atoms
  rectangle templates
}

package core {
  rectangle gateways
  rectangle slices
  rectangle store
  rectangle usecases
}

note top of components
  UI 部品
end note

index - -> App
App -> routers
routers - -> adapters
pages -> templates
organisms -> molecules
molecules -> atoms
templates -> organisms

store -> slices
slices -> usecases
usecases -> gateways

adapters -> components
adapters - -> core

note bottom of core
  ビジネスロジック
end note

@enduml

@startuml dependencies
skinparam shadowing false
scale 0.8

skinparam packageStyle Rectangle

rectangle index
rectangle App
rectangle routers
rectangle adapters

package components {
  rectangle pages
  rectangle organisms
  rectangle molecules
  rectangle atoms
  rectangle templates
}

package core {
  rectangle gateways
  rectangle slices
  rectangle store
  rectangle usecases
}

note top of components
  UI 部品
end note

index - -> App
App -> routers
routers - -> adapters
pages -> templates
organisms -> molecules
molecules -> atoms
templates -> organisms

store -> slices
slices -> usecases
usecases -> gateways

adapters -> components
adapters - -> core

note bottom of core
  ビジネスロジック
end note

@enduml

PlantUML version 1.2022.0(Wed Jan 12 01:16:42 JST 2022)
(GPL source distribution)
Java Runtime: OpenJDK Runtime Environment
JVM: OpenJDK 64-Bit Server VM
Default Encoding: UTF-8
Language: ja
Country: JP
--></g></svg>