<?xml version="1.0" encoding="UTF-8" standalone="no"?><svg xmlns="http://www.w3.org/2000/svg" xmlns:xlink="http://www.w3.org/1999/xlink" contentScriptType="application/ecmascript" contentStyleType="text/css" height="366.0911px" preserveAspectRatio="none" style="width:401px;height:366px;background:#FFFFFF;" version="1.1" viewBox="0 0 401 366" width="401.8838px" zoomAndPan="magnify"><defs><filter height="300%" id="fba9ewnayrfv4" width="300%" x="-1" y="-1"><feGaussianBlur result="blurOut" stdDeviation="1.2558869701726845"/><feColorMatrix in="blurOut" result="blurOut2" type="matrix" values="0 0 0 0 0 0 0 0 0 0 0 0 0 0 0 0 0 0 .4 0"/><feOffset dx="2.511773940345369" dy="2.511773940345369" in="blurOut2" result="blurOut3"/><feBlend in="SourceGraphic" in2="blurOut3" mode="normal"/></filter></defs><g><text fill="#000000" font-family="sans-serif" font-size="11.303" lengthAdjust="spacing" textLength="206.5934" x="92.9356" y="10.9277">React サンプルプロジェクト 依存関係図</text><!--MD5=[67a6735b2a5707e03290b64fb931c9ce]
cluster components--><rect fill="#FFFFFF" filter="url(#fba9ewnayrfv4)" height="64.6782" style="stroke:#000000;stroke-width:0.9419152276295133;" width="376.7661" x="4.3956" y="294.0026"/><text fill="#000000" font-family="sans-serif" font-size="8.7912" font-weight="bold" lengthAdjust="spacing" textLength="55.259" x="165.1491" y="303.7578">components</text><!--MD5=[01435ace8273dc3cae88e7f376e4d373]
cluster core--><rect fill="#FFFFFF" filter="url(#fba9ewnayrfv4)" height="64.6782" style="stroke:#000000;stroke-width:0.9419152276295133;" width="281.9466" x="92.3077" y="175.9493"/><text fill="#000000" font-family="sans-serif" font-size="8.7912" font-weight="bold" lengthAdjust="spacing" textLength="18.8383" x="223.8619" y="185.7045">core</text><!--MD5=[85f4d1a33338ddce045f9b827d37a273]
entity pages--><rect fill="#FEFECE" filter="url(#fba9ewnayrfv4)" height="22.9126" style="stroke:#000000;stroke-width:0.9419152276295133;" width="38.3046" x="19.7802" y="321.0042"/><text fill="#000000" font-family="sans-serif" font-size="8.7912" lengthAdjust="spacing" textLength="25.7457" x="26.0597" y="335.783">pages</text><!--MD5=[b6cc7475285a593b5cc9fc221385c7bb]
entity organisms--><rect fill="#FEFECE" filter="url(#fba9ewnayrfv4)" height="22.9126" style="stroke:#000000;stroke-width:0.9419152276295133;" width="57.7708" x="156.9859" y="321.0042"/><text fill="#000000" font-family="sans-serif" font-size="8.7912" lengthAdjust="spacing" textLength="45.2119" x="163.2653" y="335.783">organisms</text><!--MD5=[449dffa8e95e04b1e6c5f80ed83d8145]
entity molecules--><rect fill="#FEFECE" filter="url(#fba9ewnayrfv4)" height="22.9126" style="stroke:#000000;stroke-width:0.9419152276295133;" width="55.887" x="237.0487" y="321.0042"/><text fill="#000000" font-family="sans-serif" font-size="8.7912" lengthAdjust="spacing" textLength="43.3281" x="243.3281" y="335.783">molecules</text><!--MD5=[ba206de70ec52031b239008c66b74954]
entity atoms--><rect fill="#FEFECE" filter="url(#fba9ewnayrfv4)" height="22.9126" style="stroke:#000000;stroke-width:0.9419152276295133;" width="38.9325" x="315.2276" y="321.0042"/><text fill="#000000" font-family="sans-serif" font-size="8.7912" lengthAdjust="spacing" textLength="26.3736" x="321.5071" y="335.783">atoms</text><!--MD5=[4973cff6d5222f460e58305e2909ce55]
entity templates--><rect fill="#FEFECE" filter="url(#fba9ewnayrfv4)" height="22.9126" style="stroke:#000000;stroke-width:0.9419152276295133;" width="54.6311" x="80.0628" y="321.0042"/><text fill="#000000" font-family="sans-serif" font-size="8.7912" lengthAdjust="spacing" textLength="42.0722" x="86.3422" y="335.783">templates</text><!--MD5=[ecd40efa396aed24c560a3b32142d2b5]
entity gateways--><rect fill="#FEFECE" filter="url(#fba9ewnayrfv4)" height="22.9126" style="stroke:#000000;stroke-width:0.9419152276295133;" width="52.1193" x="306.7504" y="202.9508"/><text fill="#000000" font-family="sans-serif" font-size="8.7912" lengthAdjust="spacing" textLength="39.5604" x="313.0298" y="217.7296">gateways</text><!--MD5=[ac2385813f1b79deff9596fc3d11e257]
entity slices--><rect fill="#FEFECE" filter="url(#fba9ewnayrfv4)" height="22.9126" style="stroke:#000000;stroke-width:0.9419152276295133;" width="35.7928" x="176.1381" y="202.9508"/><text fill="#000000" font-family="sans-serif" font-size="8.7912" lengthAdjust="spacing" textLength="23.2339" x="182.4176" y="217.7296">slices</text><!--MD5=[0686720d71d32ea68f81164171d509ce]
entity store--><rect fill="#FEFECE" filter="url(#fba9ewnayrfv4)" height="22.9126" style="stroke:#000000;stroke-width:0.9419152276295133;" width="34.5369" x="119.6232" y="202.9508"/><text fill="#000000" font-family="sans-serif" font-size="8.7912" lengthAdjust="spacing" textLength="21.978" x="125.9027" y="217.7296">store</text><!--MD5=[fd2f3c0334b9635c2a48f5a2d6be6392]
entity usecases--><rect fill="#FEFECE" filter="url(#fba9ewnayrfv4)" height="22.9126" style="stroke:#000000;stroke-width:0.9419152276295133;" width="50.8634" x="233.9089" y="202.9508"/><text fill="#000000" font-family="sans-serif" font-size="8.7912" lengthAdjust="spacing" textLength="38.3046" x="240.1884" y="217.7296">usecases</text><!--MD5=[b30b38ce4569dacde3f8306bd4ec7604]
entity index--><rect fill="#FEFECE" filter="url(#fba9ewnayrfv4)" height="22.9126" style="stroke:#000000;stroke-width:0.9419152276295133;" width="37.0487" x="7.8493" y="17.7075"/><text fill="#000000" font-family="sans-serif" font-size="8.7912" lengthAdjust="spacing" textLength="24.4898" x="14.1287" y="32.4863">index</text><!--MD5=[6e8f311b0aa23032184ffba0ef926f91]
entity App--><rect fill="#FEFECE" filter="url(#fba9ewnayrfv4)" height="22.9126" style="stroke:#000000;stroke-width:0.9419152276295133;" width="30.1413" x="11.303" y="77.9901"/><text fill="#000000" font-family="sans-serif" font-size="8.7912" lengthAdjust="spacing" textLength="17.5824" x="17.5824" y="92.7688">App</text><!--MD5=[58b0dd66ef19f0813ca5dbc778434f73]
entity routers--><rect fill="#FEFECE" filter="url(#fba9ewnayrfv4)" height="22.9126" style="stroke:#000000;stroke-width:0.9419152276295133;" width="43.956" x="4.3956" y="138.2727"/><text fill="#000000" font-family="sans-serif" font-size="8.7912" lengthAdjust="spacing" textLength="31.3972" x="10.675" y="153.0514">routers</text><!--MD5=[a7825cdfc9773e2ccb28c0d25db19e9e]
entity controllers--><rect fill="#FEFECE" filter="url(#fba9ewnayrfv4)" height="22.9126" style="stroke:#000000;stroke-width:0.9419152276295133;" width="59.0267" x="9.4192" y="202.9508"/><text fill="#000000" font-family="sans-serif" font-size="8.7912" lengthAdjust="spacing" textLength="46.4678" x="15.6986" y="217.7296">controllers</text><path d="M356.044,263.2334 L356.044,279.127 L396.2323,279.127 L396.2323,269.5129 L389.9529,263.2334 L356.044,263.2334 " fill="#FBFB77" filter="url(#fba9ewnayrfv4)" style="stroke:#A80036;stroke-width:0.6279434850863422;"/><path d="M389.9529,263.2334 L389.9529,269.5129 L396.2323,269.5129 L389.9529,263.2334 " fill="#FBFB77" style="stroke:#A80036;stroke-width:0.6279434850863422;"/><text fill="#000000" font-family="sans-serif" font-size="8.1633" lengthAdjust="spacing" textLength="27.0016" x="359.8116" y="274.2654">UI 部品</text><path d="M70.6436,141.7264 L70.6436,157.6199 L149.1366,157.6199 L149.1366,148.0058 L142.8571,141.7264 L70.6436,141.7264 " fill="#FBFB77" filter="url(#fba9ewnayrfv4)" style="stroke:#A80036;stroke-width:0.6279434850863422;"/><path d="M142.8571,141.7264 L142.8571,148.0058 L149.1366,148.0058 L142.8571,141.7264 " fill="#FBFB77" style="stroke:#A80036;stroke-width:0.6279434850863422;"/><text fill="#000000" font-family="sans-serif" font-size="8.1633" lengthAdjust="spacing" textLength="65.3061" x="74.4113" y="152.7583">ビジネスロジック</text><!--MD5=[461a1631904403ba84c8a15b684d417d]
link GMN12 to components--><path d="M376.1381,279.0639 C376.1381,282.9414 376.1381,288.027 376.1381,293.5079 C376.1381,293.5936 376.1381,293.6793 376.1381,293.7652 " fill="none" id="GMN12-components" style="stroke:#A80036;stroke-width:0.6279434850863422;stroke-dasharray:7.0,7.0;"/><!--MD5=[c0b237845a10662ab153fdd861487416]
link index to App--><path d="M26.3736,40.4642 C26.3736,50.034 26.3736,64.056 26.3736,74.5113 " fill="none" id="index-to-App" style="stroke:#A80036;stroke-width:0.6279434850863422;stroke-dasharray:7.0,7.0;"/><polygon fill="#A80036" points="26.3736,77.9085,28.8854,72.257,26.3736,74.7687,23.8619,72.257,26.3736,77.9085" style="stroke:#A80036;stroke-width:0.6279434850863422;"/><!--MD5=[2980d0585f74092fad27cedda57666b0]
link App to routers--><path d="M26.3736,100.7468 C26.3736,110.3166 26.3736,124.3386 26.3736,134.7939 " fill="none" id="App-to-routers" style="stroke:#A80036;stroke-width:0.6279434850863422;stroke-dasharray:7.0,7.0;"/><polygon fill="#A80036" points="26.3736,138.191,28.8854,132.5395,26.3736,135.0513,23.8619,132.5395,26.3736,138.191" style="stroke:#A80036;stroke-width:0.6279434850863422;"/><!--MD5=[a38d77518fb75751b2ccf55c590c6382]
link routers to controllers--><path d="M28.5024,160.9603 C30.6122,171.6227 33.8587,187.9995 36.1695,199.6604 " fill="none" id="routers-to-controllers" style="stroke:#A80036;stroke-width:0.6279434850863422;stroke-dasharray:7.0,7.0;"/><polygon fill="#A80036" points="36.7912,202.8127,38.1594,196.7814,36.1823,199.7326,33.2312,197.7556,36.7912,202.8127" style="stroke:#A80036;stroke-width:0.6279434850863422;"/><!--MD5=[beb0bcf5720fcd9f7ba214a16ab0694e]
link pages to templates--><path d="M58.1852,332.3072 C64.3454,332.3072 70.5118,332.3072 76.6719,332.3072 " fill="none" id="pages-to-templates" style="stroke:#A80036;stroke-width:0.6279434850863422;stroke-dasharray:7.0,7.0;"/><polygon fill="#A80036" points="79.8995,332.3072,74.248,329.7954,76.7598,332.3072,74.248,334.819,79.8995,332.3072" style="stroke:#A80036;stroke-width:0.6279434850863422;"/><!--MD5=[67abd2885267d7dd0bca6b42a04be1cf]
link controllers to pages--><path d="M38.9325,225.6636 C38.9325,246.8692 38.9325,294.0026 38.9325,317.6196 " fill="none" id="controllers-to-pages" style="stroke:#A80036;stroke-width:0.6279434850863422;stroke-dasharray:7.0,7.0;"/><polygon fill="#A80036" points="38.9325,320.9289,41.4443,315.2774,38.9325,317.7891,36.4207,315.2774,38.9325,320.9289" style="stroke:#A80036;stroke-width:0.6279434850863422;"/><!--MD5=[151e0cde9710f9d183fab5a569000b55]
link organisms to molecules--><path d="M214.9262,332.3072 C221.1994,332.3072 227.4725,332.3072 233.7457,332.3072 " fill="none" id="organisms-to-molecules" style="stroke:#A80036;stroke-width:0.6279434850863422;stroke-dasharray:7.0,7.0;"/><polygon fill="#A80036" points="237.0235,332.3072,231.3721,329.7954,233.8838,332.3072,231.3721,334.819,237.0235,332.3072" style="stroke:#A80036;stroke-width:0.6279434850863422;"/><!--MD5=[50cb16575eff6aac3159d2d9bebd4a82]
link molecules to atoms--><path d="M293.0361,332.3072 C299.3155,332.3072 305.6013,332.3072 311.8807,332.3072 " fill="none" id="molecules-to-atoms" style="stroke:#A80036;stroke-width:0.6279434850863422;stroke-dasharray:7.0,7.0;"/><polygon fill="#A80036" points="315.1648,332.3072,309.5133,329.7954,312.0251,332.3072,309.5133,334.819,315.1648,332.3072" style="stroke:#A80036;stroke-width:0.6279434850863422;"/><!--MD5=[00639ab4ea360f4acc44c873533fd978]
link templates to organisms--><path d="M134.9765,332.3072 C141.1805,332.3072 147.3909,332.3072 153.595,332.3072 " fill="none" id="templates-to-organisms" style="stroke:#A80036;stroke-width:0.6279434850863422;stroke-dasharray:7.0,7.0;"/><polygon fill="#A80036" points="156.8414,332.3072,151.19,329.7954,153.7017,332.3072,151.19,334.819,156.8414,332.3072" style="stroke:#A80036;stroke-width:0.6279434850863422;"/><!--MD5=[c80d464f8c57e64cc219df20f06c6ca6]
link controllers to core--><path d="M68.5903,214.2538 C73.3061,214.2538 78.022,214.2538 82.737,214.2538 C85.0946,214.2538 87.4519,214.2538 89.809,214.2538 C90.3982,214.2538 90.9875,214.2538 91.5767,214.2538 C91.724,214.2538 91.8713,214.2538 92.0186,214.2538 C92.0923,214.2538 92.1659,214.2538 92.2396,214.2538 " fill="none" id="controllers-to-core" style="stroke:#A80036;stroke-width:0.6279434850863422;stroke-dasharray:7.0,7.0;"/><polygon fill="#A80036" points="92.2396,214.2538,86.5881,211.7421,89.0998,214.2538,86.5881,216.7656,92.2396,214.2538" style="stroke:#A80036;stroke-width:0.6279434850863422;"/><!--MD5=[c2d8e5056cb43dfc4f5f6ecbd067eae8]
link store to slices--><path d="M154.3046,214.2538 C160.471,214.2538 166.6374,214.2538 172.8038,214.2538 " fill="none" id="store-to-slices" style="stroke:#A80036;stroke-width:0.6279434850863422;stroke-dasharray:7.0,7.0;"/><polygon fill="#A80036" points="176.0314,214.2538,170.3799,211.7421,172.8917,214.2538,170.3799,216.7656,176.0314,214.2538" style="stroke:#A80036;stroke-width:0.6279434850863422;"/><!--MD5=[b32ac42b031162020e09dba99d09c98b]
link slices to usecases--><path d="M212.1444,214.2538 C218.3234,214.2538 224.4961,214.2538 230.6688,214.2538 " fill="none" id="slices-to-usecases" style="stroke:#A80036;stroke-width:0.6279434850863422;stroke-dasharray:7.0,7.0;"/><polygon fill="#A80036" points="233.9027,214.2538,228.2512,211.7421,230.763,214.2538,228.2512,216.7656,233.9027,214.2538" style="stroke:#A80036;stroke-width:0.6279434850863422;"/><!--MD5=[f2f01508f9d36582a9ace8acff38dafa]
link usecases to gateways--><path d="M284.8854,214.2538 C291.0455,214.2538 297.2119,214.2538 303.3783,214.2538 " fill="none" id="usecases-to-gateways" style="stroke:#A80036;stroke-width:0.6279434850863422;stroke-dasharray:7.0,7.0;"/><polygon fill="#A80036" points="306.5997,214.2538,300.9482,211.7421,303.46,214.2538,300.9482,216.7656,306.5997,214.2538" style="stroke:#A80036;stroke-width:0.6279434850863422;"/><!--MD5=[6cefdda6fdab52a57567944956d91224]
link GMN32 to core--><path d="M108.4521,157.4815 C107.6389,161.5804 106.5526,167.0619 105.3768,172.9974 C105.2298,173.7393 105.0814,174.4883 104.932,175.2426 C104.8946,175.4312 104.8572,175.6201 104.8197,175.8093 " fill="none" id="GMN32-core" style="stroke:#A80036;stroke-width:0.6279434850863422;stroke-dasharray:7.0,7.0;"/><!--MD5=[88ed7cb82cd5017f5ab1a25dcbd89127]
@startuml dependencies
scale 400 width
title  React サンプルプロジェクト 依存関係図

skinparam packageStyle Rectangle

rectangle index
rectangle App
rectangle routers
rectangle controllers
package components {
  rectangle pages
  rectangle organisms
  rectangle molecules
  rectangle atoms
  rectangle templates
}

note top of components
  UI 部品
end note

index ..> App
App ..> routers
routers ..> controllers
pages .> templates
controllers ...> pages
organisms .> molecules
molecules .> atoms
templates .> organisms

package core {
  rectangle gateways
  rectangle slices
  rectangle store
  rectangle usecases
}

controllers .> core
store .> slices
slices .> usecases
usecases .> gateways

note top of core
  ビジネスロジック
end note

@enduml

PlantUML version 1.2022.0(Wed Jan 12 01:16:42 JST 2022)
(GPL source distribution)
Java Runtime: OpenJDK Runtime Environment
JVM: OpenJDK 64-Bit Server VM
Default Encoding: UTF-8
Language: ja
Country: JP
--></g></svg>