<?xml version="1.0" encoding="UTF-8" standalone="no"?><svg xmlns="http://www.w3.org/2000/svg" xmlns:xlink="http://www.w3.org/1999/xlink" contentScriptType="application/ecmascript" contentStyleType="text/css" height="532px" preserveAspectRatio="none" style="width:692px;height:532px;background:#FFFFFF;" version="1.1" viewBox="0 0 692 532" width="692.8px" zoomAndPan="magnify"><defs/><g><!--MD5=[67a6735b2a5707e03290b64fb931c9ce]
cluster components--><rect fill="#FFFFFF" height="397.2" style="stroke:#000000;stroke-width:1.2000000000000002;" width="118.4" x="5.6" y="130.4"/><text fill="#000000" font-family="sans-serif" font-size="11.2" font-weight="bold" lengthAdjust="spacing" textLength="70.4" x="29.6" y="142.8281">components</text><!--MD5=[01435ace8273dc3cae88e7f376e4d373]
cluster core--><rect fill="#FFFFFF" height="318.4" style="stroke:#000000;stroke-width:1.2000000000000002;" width="112" x="576" y="130.4"/><text fill="#000000" font-family="sans-serif" font-size="11.2" font-weight="bold" lengthAdjust="spacing" textLength="24" x="620" y="142.8281">core</text><!--MD5=[7552260fd2021a323855cf929da74f79]
cluster modules--><rect fill="#FFFFFF" height="161.2" style="stroke:#000000;stroke-width:1.2000000000000002;" width="229.6" x="314.4" y="366.4"/><text fill="#000000" font-family="sans-serif" font-size="11.2" font-weight="bold" lengthAdjust="spacing" textLength="49.6" x="404.4" y="378.8281">modules</text><!--MD5=[85f4d1a33338ddce045f9b827d37a273]
entity pages--><rect fill="#FEFECE" height="29.1906" style="stroke:#000000;stroke-width:1.2000000000000002;" width="48.8" x="37.2" y="164.8"/><text fill="#000000" font-family="sans-serif" font-size="11.2" lengthAdjust="spacing" textLength="32.8" x="45.2" y="183.6281">pages</text><!--MD5=[b6cc7475285a593b5cc9fc221385c7bb]
entity organisms--><rect fill="#FEFECE" height="29.1906" style="stroke:#000000;stroke-width:1.2000000000000002;" width="73.6" x="24.8" y="318.4"/><text fill="#000000" font-family="sans-serif" font-size="11.2" lengthAdjust="spacing" textLength="57.6" x="32.8" y="337.2281">organisms</text><!--MD5=[449dffa8e95e04b1e6c5f80ed83d8145]
entity molecules--><rect fill="#FEFECE" height="29.1906" style="stroke:#000000;stroke-width:1.2000000000000002;" width="71.2" x="26" y="400.8"/><text fill="#000000" font-family="sans-serif" font-size="11.2" lengthAdjust="spacing" textLength="55.2" x="34" y="419.6281">molecules</text><!--MD5=[ba206de70ec52031b239008c66b74954]
entity atoms--><rect fill="#FEFECE" height="29.1906" style="stroke:#000000;stroke-width:1.2000000000000002;" width="49.6" x="36.8" y="479.6"/><text fill="#000000" font-family="sans-serif" font-size="11.2" lengthAdjust="spacing" textLength="33.6" x="44.8" y="498.4281">atoms</text><!--MD5=[4973cff6d5222f460e58305e2909ce55]
entity templates--><rect fill="#FEFECE" height="29.1906" style="stroke:#000000;stroke-width:1.2000000000000002;" width="69.6" x="26.8" y="241.6"/><text fill="#000000" font-family="sans-serif" font-size="11.2" lengthAdjust="spacing" textLength="53.6" x="34.8" y="260.4281">templates</text><!--MD5=[ecd40efa396aed24c560a3b32142d2b5]
entity gateways--><rect fill="#FEFECE" height="29.1906" style="stroke:#000000;stroke-width:1.2000000000000002;" width="66.4" x="602" y="400.8"/><text fill="#000000" font-family="sans-serif" font-size="11.2" lengthAdjust="spacing" textLength="50.4" x="610" y="419.6281">gateways</text><!--MD5=[ac2385813f1b79deff9596fc3d11e257]
entity slices--><rect fill="#FEFECE" height="29.1906" style="stroke:#000000;stroke-width:1.2000000000000002;" width="45.6" x="612.4" y="241.6"/><text fill="#000000" font-family="sans-serif" font-size="11.2" lengthAdjust="spacing" textLength="29.6" x="620.4" y="260.4281">slices</text><!--MD5=[0686720d71d32ea68f81164171d509ce]
entity store--><rect fill="#FEFECE" height="29.1906" style="stroke:#000000;stroke-width:1.2000000000000002;" width="44" x="613.2" y="164.8"/><text fill="#000000" font-family="sans-serif" font-size="11.2" lengthAdjust="spacing" textLength="28" x="621.2" y="183.6281">store</text><!--MD5=[fd2f3c0334b9635c2a48f5a2d6be6392]
entity usecases--><rect fill="#FEFECE" height="29.1906" style="stroke:#000000;stroke-width:1.2000000000000002;" width="64.8" x="602.8" y="318.4"/><text fill="#000000" font-family="sans-serif" font-size="11.2" lengthAdjust="spacing" textLength="48.8" x="610.8" y="337.2281">usecases</text><!--MD5=[cb3d66c929489a99ecf6c8633ae21583]
entity react--><rect fill="#FEFECE" height="29.1906" style="stroke:#000000;stroke-width:1.2000000000000002;" width="43.2" x="370.4" y="400.8"/><text fill="#000000" font-family="sans-serif" font-size="11.2" lengthAdjust="spacing" textLength="27.2" x="378.4" y="419.6281">react</text><!--MD5=[8d89a1466637a6afe86506d20e8ad491]
entity react-redux--><rect fill="#FEFECE" height="29.1906" style="stroke:#000000;stroke-width:1.2000000000000002;" width="82.4" x="442" y="400.8"/><text fill="#000000" font-family="sans-serif" font-size="11.2" lengthAdjust="spacing" textLength="66.4" x="450" y="419.6281">react-redux</text><!--MD5=[8b3071e04b49870aac409014903e1f44]
entity react-router-dom--><rect fill="#FEFECE" height="29.1906" style="stroke:#000000;stroke-width:1.2000000000000002;" width="115.2" x="340" y="479.6"/><text fill="#000000" font-family="sans-serif" font-size="11.2" lengthAdjust="spacing" textLength="99.2" x="348" y="498.4281">react-router-dom</text><!--MD5=[b922248f63547c046d6a1226270355e8]
entity etc...--><rect fill="#FEFECE" height="29.1906" style="stroke:#000000;stroke-width:1.2000000000000002;" width="41.6" x="483.2" y="479.6"/><text fill="#000000" font-family="sans-serif" font-size="11.2" lengthAdjust="spacing" textLength="25.6" x="491.2" y="498.4281">etc...</text><!--MD5=[b30b38ce4569dacde3f8306bd4ec7604]
entity index--><rect fill="#FEFECE" height="29.1906" style="stroke:#000000;stroke-width:1.2000000000000002;" width="47.2" x="172.4" y="5.6"/><text fill="#000000" font-family="sans-serif" font-size="11.2" lengthAdjust="spacing" textLength="31.2" x="180.4" y="24.4281">index</text><!--MD5=[6e8f311b0aa23032184ffba0ef926f91]
entity App--><rect fill="#FEFECE" height="29.1906" style="stroke:#000000;stroke-width:1.2000000000000002;" width="38.4" x="248" y="5.6"/><text fill="#000000" font-family="sans-serif" font-size="11.2" lengthAdjust="spacing" textLength="22.4" x="256" y="24.4281">App</text><!--MD5=[58b0dd66ef19f0813ca5dbc778434f73]
entity routers--><rect fill="#FEFECE" height="29.1906" style="stroke:#000000;stroke-width:1.2000000000000002;" width="56" x="314.4" y="5.6"/><text fill="#000000" font-family="sans-serif" font-size="11.2" lengthAdjust="spacing" textLength="40" x="322.4" y="24.4281">routers</text><!--MD5=[0bb9c21cf77994669bd82826522e1a46]
entity adapters--><rect fill="#FEFECE" height="29.1906" style="stroke:#000000;stroke-width:1.2000000000000002;" width="64" x="310.4" y="82.4"/><text fill="#000000" font-family="sans-serif" font-size="11.2" lengthAdjust="spacing" textLength="48" x="318.4" y="101.2281">adapters</text><path d="M92,86.8 L92,107.0484 L143.2,107.0484 L143.2,94.8 L135.2,86.8 L92,86.8 " fill="#FBFB77" style="stroke:#A80036;stroke-width:0.8000000000000002;"/><path d="M135.2,86.8 L135.2,94.8 L143.2,94.8 L135.2,86.8 " fill="#FBFB77" style="stroke:#A80036;stroke-width:0.8000000000000002;"/><text fill="#000000" font-family="sans-serif" font-size="10.4" lengthAdjust="spacing" textLength="34.4" x="96.8" y="100.8547">UI 部品</text><path d="M541.2,86.8 L541.2,107.0484 L623.6,107.0484 L623.6,94.8 L615.6,86.8 L541.2,86.8 " fill="#FBFB77" style="stroke:#A80036;stroke-width:0.8000000000000002;"/><path d="M615.6,86.8 L615.6,94.8 L623.6,94.8 L615.6,86.8 " fill="#FBFB77" style="stroke:#A80036;stroke-width:0.8000000000000002;"/><text fill="#000000" font-family="sans-serif" font-size="10.4" lengthAdjust="spacing" textLength="65.6" x="546" y="100.8547">UI 以外の部品</text><path d="M143.2,477.6 L143.2,510.0969 L295.2,510.0969 L295.2,485.6 L287.2,477.6 L143.2,477.6 " fill="#FBFB77" style="stroke:#A80036;stroke-width:0.8000000000000002;"/><path d="M287.2,477.6 L287.2,485.6 L295.2,485.6 L287.2,477.6 " fill="#FBFB77" style="stroke:#A80036;stroke-width:0.8000000000000002;"/><text fill="#000000" font-family="sans-serif" font-size="10.4" lengthAdjust="spacing" textLength="135.2" x="148" y="491.6547">ビジネスロジックを含まない</text><text fill="#000000" font-family="sans-serif" font-size="10.4" lengthAdjust="spacing" textLength="52" x="148" y="503.9031">モジュール</text><!--MD5=[941c270db219c417e349b4215329ba1c]
link GMN7 to components--><path d="M117.6,106.872 C117.6,112.094 117.6,119.0775 117.6,126.6393 C117.6,127.5845 117.6,128.5387 117.6,129.4997 C117.6,129.7399 117.6,129.9806 117.6,130.2217 " fill="none" id="GMN7-components" style="stroke:#A80036;stroke-width:0.8000000000000002;stroke-dasharray:7.0,7.0;"/><!--MD5=[730cc59fb3be6348b6ef09554895e269]
link GMN11 to core--><path d="M582.4,106.872 C582.4,112.094 582.4,119.0775 582.4,126.6393 C582.4,127.5845 582.4,128.5387 582.4,129.4997 C582.4,129.7399 582.4,129.9806 582.4,130.2217 " fill="none" id="GMN11-core" style="stroke:#A80036;stroke-width:0.8000000000000002;stroke-dasharray:7.0,7.0;"/><!--MD5=[c0b237845a10662ab153fdd861487416]
link index to App--><path d="M219.64,20 C227.656,20 235.672,20 243.688,20 " fill="none" id="index-to-App" style="stroke:#A80036;stroke-width:0.8000000000000002;"/><polygon fill="#A80036" points="247.88,20,240.68,16.8,243.88,20,240.68,23.2,247.88,20" style="stroke:#A80036;stroke-width:0.8000000000000002;"/><!--MD5=[2980d0585f74092fad27cedda57666b0]
link App to routers--><path d="M286.584,20 C294.448,20 302.304,20 310.168,20 " fill="none" id="App-to-routers" style="stroke:#A80036;stroke-width:0.8000000000000002;"/><polygon fill="#A80036" points="314.272,20,307.072,16.8,310.272,20,307.072,23.2,314.272,20" style="stroke:#A80036;stroke-width:0.8000000000000002;"/><!--MD5=[24cf9cf451d7f1909271b667238ce8f8]
link routers to adapters--><path d="M342.4,34.592 C342.4,46.784 342.4,64.648 342.4,77.968 " fill="none" id="routers-to-adapters" style="stroke:#A80036;stroke-width:0.8000000000000002;"/><polygon fill="#A80036" points="342.4,82.296,345.6,75.096,342.4,78.296,339.2,75.096,342.4,82.296" style="stroke:#A80036;stroke-width:0.8000000000000002;"/><!--MD5=[beb0bcf5720fcd9f7ba214a16ab0694e]
link pages to templates--><path d="M61.6,193.792 C61.6,205.984 61.6,223.848 61.6,237.168 " fill="none" id="pages-to-templates" style="stroke:#A80036;stroke-width:0.8000000000000002;"/><polygon fill="#A80036" points="61.6,241.496,64.8,234.296,61.6,237.496,58.4,234.296,61.6,241.496" style="stroke:#A80036;stroke-width:0.8000000000000002;"/><!--MD5=[151e0cde9710f9d183fab5a569000b55]
link organisms to molecules--><path d="M61.6,347.304 C61.6,360.888 61.6,381.752 61.6,396.608 " fill="none" id="organisms-to-molecules" style="stroke:#A80036;stroke-width:0.8000000000000002;"/><polygon fill="#A80036" points="61.6,400.624,64.8,393.424,61.6,396.624,58.4,393.424,61.6,400.624" style="stroke:#A80036;stroke-width:0.8000000000000002;"/><!--MD5=[50cb16575eff6aac3159d2d9bebd4a82]
link molecules to atoms--><path d="M61.6,429.8 C61.6,442.536 61.6,461.512 61.6,475.392 " fill="none" id="molecules-to-atoms" style="stroke:#A80036;stroke-width:0.8000000000000002;"/><polygon fill="#A80036" points="61.6,479.52,64.8,472.32,61.6,475.52,58.4,472.32,61.6,479.52" style="stroke:#A80036;stroke-width:0.8000000000000002;"/><!--MD5=[00639ab4ea360f4acc44c873533fd978]
link templates to organisms--><path d="M61.6,270.592 C61.6,282.784 61.6,300.648 61.6,313.968 " fill="none" id="templates-to-organisms" style="stroke:#A80036;stroke-width:0.8000000000000002;"/><polygon fill="#A80036" points="61.6,318.296,64.8,311.096,61.6,314.296,58.4,311.096,61.6,318.296" style="stroke:#A80036;stroke-width:0.8000000000000002;"/><!--MD5=[c2d8e5056cb43dfc4f5f6ecbd067eae8]
link store to slices--><path d="M635.2,193.792 C635.2,205.984 635.2,223.848 635.2,237.168 " fill="none" id="store-to-slices" style="stroke:#A80036;stroke-width:0.8000000000000002;"/><polygon fill="#A80036" points="635.2,241.496,638.4,234.296,635.2,237.496,632,234.296,635.2,241.496" style="stroke:#A80036;stroke-width:0.8000000000000002;"/><!--MD5=[b32ac42b031162020e09dba99d09c98b]
link slices to usecases--><path d="M635.2,270.592 C635.2,282.784 635.2,300.648 635.2,313.968 " fill="none" id="slices-to-usecases" style="stroke:#A80036;stroke-width:0.8000000000000002;"/><polygon fill="#A80036" points="635.2,318.296,638.4,311.096,635.2,314.296,632,311.096,635.2,318.296" style="stroke:#A80036;stroke-width:0.8000000000000002;"/><!--MD5=[f2f01508f9d36582a9ace8acff38dafa]
link usecases to gateways--><path d="M635.2,347.304 C635.2,360.888 635.2,381.752 635.2,396.608 " fill="none" id="usecases-to-gateways" style="stroke:#A80036;stroke-width:0.8000000000000002;"/><polygon fill="#A80036" points="635.2,400.624,638.4,393.424,635.2,396.624,632,393.424,635.2,400.624" style="stroke:#A80036;stroke-width:0.8000000000000002;"/><!--MD5=[c0557cc87b32abb25ee369a905a6c5f2]
link adapters to components--><path d="M310.192,109.176 C279.596,120.172 232.462,137.114 192.482,151.485 C172.492,158.6705 154.2905,165.2133 140.839,170.0486 C134.1133,172.4663 128.575,174.4572 124.5944,175.8881 C124.47,175.9328 124.3472,175.977 124.2258,176.0206 " fill="none" id="adapters-to-components" style="stroke:#A80036;stroke-width:0.8000000000000002;"/><polygon fill="#A80036" points="124.2258,176.0206,132.0839,176.5963,127.99,174.6674,129.9188,170.5736,124.2258,176.0206" style="stroke:#A80036;stroke-width:0.8000000000000002;"/><!--MD5=[34c7576c9e76fc9506a6bd6317603c58]
link adapters to core--><path d="M374.52,108.416 C406.708,119.252 457.57,136.374 500.926,150.97 C522.604,158.268 542.4055,164.9345 557.058,169.868 C564.3843,172.3348 570.4233,174.3683 574.7659,175.8308 C575.0374,175.9222 575.3021,176.0114 575.5602,176.0983 C575.6892,176.1418 575.8166,176.1847 575.9423,176.227 " fill="none" id="adapters-to-core" style="stroke:#A80036;stroke-width:0.8000000000000002;"/><polygon fill="#A80036" points="575.9423,176.227,570.1403,170.8962,572.1515,174.9502,568.0975,176.9615,575.9423,176.227" style="stroke:#A80036;stroke-width:0.8000000000000002;"/><!--MD5=[c9323a83e522be15f8b90a2afb329382]
link modules to GMN36--><path d="M314.3239,420.922 C314.2522,420.9765 314.18,421.0314 314.1072,421.0867 C313.8161,421.3078 313.5169,421.5352 313.2097,421.7686 C312.5953,422.2355 311.949,422.7264 311.2731,423.24 C305.8658,427.3485 298.5565,432.902 290.407,439.094 C274.108,451.478 254.448,466.416 239.92,477.456 " fill="none" id="modules-GMN36" style="stroke:#A80036;stroke-width:0.8000000000000002;stroke-dasharray:7.0,7.0;"/><!--MD5=[d243f81a95eac696e02dc62d6599d485]
link core to modules--><path d="M575.8937,182.101 C575.7493,182.1493 575.6026,182.1985 575.4537,182.2485 C575.156,182.3484 574.8493,182.4517 574.5339,182.5584 C573.9031,182.7717 573.2373,182.9985 572.5376,183.2386 C566.9402,185.1597 559.1731,187.9394 549.7936,191.5888 C531.0348,198.8875 505.8265,209.665 478.627,224.01 C424.228,252.7 361.864,295.66 327.2,353.6 C325.511,356.424 324.1373,359.4556 323.0272,362.6032 C322.7496,363.3901 322.4886,364.1842 322.2432,364.9841 C322.1205,365.3841 322.0018,365.7855 321.8868,366.1882 " fill="none" id="core-to-modules" style="stroke:#A80036;stroke-width:0.8000000000000002;"/><polygon fill="#A80036" points="321.8868,366.1882,326.9402,360.1431,322.9848,362.3419,320.786,358.3864,321.8868,366.1882" style="stroke:#A80036;stroke-width:0.8000000000000002;"/><!--MD5=[6af21ca627055cd52fbdfbc9d03226e2]
link components to modules--><path d="M124.176,187.5827 C124.4765,187.9295 124.7865,188.2872 125.1058,188.6555 C125.7443,189.3922 126.4197,190.1715 127.1307,190.9918 C132.8184,197.5538 140.7778,206.736 150.2516,217.665 C169.1993,239.523 194.2045,268.368 219.209,297.212 C244.2135,326.056 269.2173,354.899 288.1619,376.753 C297.6342,387.68 305.5917,396.8598 311.2772,403.4188 C311.9879,404.2386 312.663,405.0176 313.3012,405.7538 C313.6203,406.122 313.9302,406.4794 314.2306,406.826 " fill="none" id="components-to-modules" style="stroke:#A80036;stroke-width:0.8000000000000002;"/><polygon fill="#A80036" points="314.2306,406.826,311.9328,399.2894,311.6107,403.8035,307.0967,403.4813,314.2306,406.826" style="stroke:#A80036;stroke-width:0.8000000000000002;"/><!--MD5=[94a6b4def3ded1e6a2c13a45a8b38c29]
link react to react-redux--><!--MD5=[065c720f873d7b24791e03675393e901]
link react to react-router-dom--><!--MD5=[52b94c39169ac15ebe623617b381108e]
link react-router-dom to etc...--><!--MD5=[9523f4242add6bf3fafaa5b74d5da8b9]
@startuml dependencies
' title  React サンプルプロジェクト 依存関係図
skinparam shadowing false
scale 0.8
' scale 400 width

skinparam packageStyle Rectangle

rectangle index
rectangle App
rectangle routers
rectangle adapters

note top of components
  UI 部品
end note

note top of core
  UI 以外の部品
end note

package components {
  rectangle pages
  rectangle organisms
  rectangle molecules
  rectangle atoms
  rectangle templates
}

package core {
  rectangle gateways
  rectangle slices
  rectangle store
  rectangle usecases
}

index -> App
App -> routers
routers - -> adapters
pages - -> templates
organisms - -> molecules
molecules - -> atoms
templates - -> organisms

store - -> slices
slices - -> usecases
usecases - -> gateways

adapters - -> components
adapters - -> core

note bottom of modules
  ビジネスロジックを含まない
  モジュール
end note

package modules {
  rectangle react
  rectangle "react-redux"
  rectangle "react-router-dom"
  rectangle "etc..."
}

core - - - -> modules
components - - - -> modules

@enduml

@startuml dependencies
skinparam shadowing false
scale 0.8

skinparam packageStyle Rectangle

rectangle index
rectangle App
rectangle routers
rectangle adapters

note top of components
  UI 部品
end note

note top of core
  UI 以外の部品
end note

package components {
  rectangle pages
  rectangle organisms
  rectangle molecules
  rectangle atoms
  rectangle templates
}

package core {
  rectangle gateways
  rectangle slices
  rectangle store
  rectangle usecases
}

index -> App
App -> routers
routers - -> adapters
pages - -> templates
organisms - -> molecules
molecules - -> atoms
templates - -> organisms

store - -> slices
slices - -> usecases
usecases - -> gateways

adapters - -> components
adapters - -> core

note bottom of modules
  ビジネスロジックを含まない
  モジュール
end note

package modules {
  rectangle react
  rectangle "react-redux"
  rectangle "react-router-dom"
  rectangle "etc..."
}

core - - - -> modules
components - - - -> modules

@enduml

PlantUML version 1.2022.0(Wed Jan 12 01:16:42 JST 2022)
(GPL source distribution)
Java Runtime: OpenJDK Runtime Environment
JVM: OpenJDK 64-Bit Server VM
Default Encoding: UTF-8
Language: ja
Country: JP
--></g></svg>